<?xml version="1.0" encoding="UTF-8"?>
<svg id="Layer_2" data-name="Layer 2" xmlns="http://www.w3.org/2000/svg" viewBox="0 0 281.68 444.65">
  <g id="Layer_1-2" data-name="Layer 1">
    <g>
      <g>
        <path d="M230.43,80.57c1.41.63,2.72,1.27,4.06,1.8,11.44,4.5,20.66,11.89,28.32,21.41,8.53,10.61,13.06,22.61,12.89,36.25-.1,7.84-1.83,15.39-5,22.55-4.6,10.4-10.52,19.98-19.21,27.48-3.21,2.77-6.95,4.92-10.51,7.28-.68.45-1,.7-.79,1.6,1.21,5.28,1,10.6.45,15.96-.45,4.38-.56,8.8-.77,13.21-.05,1.09-.33,1.79-1.54,1.91-6.58.66-13.15,1.44-19.74,1.99-5.58.47-11.17.51-16.59-1.31-.21-.07-.45-.07-.8-.12-1.06,2.36-2.09,4.72-3.17,7.06-7.01,15.28-18.28,26.41-33.42,33.45-12.83,5.97-26.2,6.27-39.57,1.86-12.88-4.25-24.22-11.16-33.3-21.33-2.85-3.19-4.98-7.03-7.35-10.62-.44-.67-.75-.87-1.53-.69-5.29,1.2-10.6,1-15.96.46-4.34-.44-8.71-.56-13.07-.78-1.66-.08-1.95-.33-2.11-1.93-.6-5.83-1.3-11.65-1.83-17.49-.55-6.09-.83-12.2,1.11-18.14.3-.93-.03-1.23-.78-1.58-3.75-1.72-7.56-3.35-11.21-5.27-8.47-4.47-15.13-11.06-20.95-18.53-8.72-11.18-12.92-23.83-11.95-38.07.8-11.84,5.24-22.39,11.57-32.26,3.34-5.2,6.91-10.25,11.7-14.19,3.57-2.94,7.52-5.42,11.36-8.01.73-.49.92-.86.73-1.67-1.14-4.86-1.01-9.76-.56-14.7.43-4.76.68-9.55.89-14.33.06-1.39.59-1.88,1.91-2.01,5.83-.57,11.66-1.29,17.49-1.82,6.09-.55,12.2-.82,18.14,1.1.9.29,1.23,0,1.59-.76,2-4.24,3.65-8.72,6.15-12.65,10.4-16.34,24.44-27.78,44.06-31.05,8.43-1.41,16.8-.55,24.9,2.12,13.78,4.55,25.83,11.86,35.23,23.08,2.33,2.79,4.06,6.08,6.1,9.1.23.34.81.75,1.12.67,5.86-1.4,11.75-.91,17.65-.38,4.02.36,8.05.5,12.08.69,1.02.05,1.57.45,1.68,1.48.64,6.16,1.45,12.3,1.91,18.47.55,7.23.76,11.73-1.39,18.7ZM87.89,238.62c.7,1.1,1.24,2.09,1.91,2.97,8.96,11.76,20.36,20.33,34.13,25.64,6.62,2.55,13.43,4.73,20.69,4.04,3.31-.31,6.64-.78,9.84-1.63,9.13-2.43,17.63-6.18,24.52-12.91,8.04-7.85,13.93-17.18,18.64-27.3.15-.33-.08-1.1-.39-1.33-7.08-5.17-11.13-12.58-14.96-20.14-.33-.65-.49-2.08-.22-2.22,1.09-.6,1.46.63,1.96,1.26,2.34,2.93,4.5,6.01,6.94,8.85,3.86,4.5,8.58,8.03,14.26,9.71,9.13,2.7,18.44,2.59,27.73.64,2.4-.5,3.3-1.71,3.32-4.15.02-3.66.19-7.34-.01-10.99-.22-3.92-.56-7.87-1.27-11.72-1.14-6.18-4.65-11.19-9.11-15.39-3.6-3.4-7.7-6.27-11.54-9.42-.62-.51-1.05-1.25-1.57-1.88.88,0,1.91-.3,2.6.06,2.81,1.48,5.63,3.01,8.24,4.81,6.06,4.18,11.2,9.26,14.69,15.84.08.15.26.24.61.57,2.53-2.02,5.17-3.9,7.57-6.06,8.83-7.95,15.57-17.43,20.03-28.44,3.48-8.6,5.97-17.4,4.17-26.89-2.09-11-5.97-21.16-13.77-29.42-7.78-8.24-17.24-14.13-27.43-18.94-.66-.31-1.07-.27-1.53.36-5.25,7.18-12.75,11.34-20.52,15.13-.53.26-1.27.06-1.92.07.32-.56.57-1.18.99-1.65.43-.48,1.05-.78,1.57-1.19,2.58-2.02,5.24-3.96,7.71-6.11,4.47-3.89,8.01-8.59,9.68-14.29,2.68-9.13,2.57-18.45.61-27.74-.49-2.32-1.66-3.21-4.06-3.24-3.33-.04-6.68-.19-10-.01-4.06.22-8.15.5-12.16,1.15-6.57,1.07-11.85,4.75-16.26,9.48-3.54,3.79-6.53,8.09-9.8,12.14-.28.34-.79.5-1.19.74-.13-.5-.45-1.04-.36-1.5.17-.86.48-1.73.91-2.5,1.11-1.96,2.24-3.91,3.49-5.77,4.41-6.55,9.73-12.14,16.8-15.88.07-.03.09-.15.16-.28-.14-.26-.27-.55-.44-.83-.4-.64-.77-1.3-1.22-1.89-9.02-11.84-20.49-20.46-34.37-25.78-7.72-2.96-15.61-5.03-24.07-3.65-9.96,1.62-19.28,4.88-27.21,11.14-10.13,8-16.75,18.76-22.24,30.27-.33.69-.18,1.08.43,1.52,7,5.08,11.03,12.42,14.85,19.88.38.73,1.26,1.74.18,2.44-.25.16-1.46-.86-2-1.53-2.3-2.84-4.4-5.85-6.78-8.62-3.91-4.52-8.65-8.1-14.4-9.76-9.23-2.66-18.63-2.59-28-.48-1.83.41-2.9,1.61-2.87,3.47.09,6.14.11,12.29.48,18.42.23,3.78.99,7.52,2.86,10.95,3.14,5.76,7.47,10.44,12.64,14.39,2.24,1.71,4.56,3.3,6.81,4.99.32.24.46.73.68,1.1-.44.16-.92.52-1.32.44-.91-.18-1.88-.41-2.64-.91-3.8-2.48-7.76-4.79-11.25-7.67-4.3-3.55-8.14-7.64-10.61-12.96-1.08.69-2.1,1.26-3.03,1.97-10.36,7.9-18.31,17.77-23.66,29.63-4.38,9.7-7.48,19.66-5.29,30.55,1.9,9.49,5.16,18.41,11.33,25.93,8.03,9.78,18.57,16.29,29.88,21.63.32.15,1.1-.08,1.33-.38,5.18-7.06,12.57-11.15,20.14-14.96.66-.33,2.09-.49,2.22-.24.56,1.09-.63,1.46-1.27,1.97-2.93,2.34-6.01,4.5-8.85,6.95-4.53,3.9-8.08,8.64-9.74,14.4-2.66,9.24-2.61,18.63-.47,27.99.43,1.88,1.64,2.92,3.61,2.88,6.14-.11,12.29-.17,18.41-.53,3.59-.21,7.16-.92,10.43-2.65,5.57-2.95,10.2-7.01,14.06-11.95,1.97-2.51,3.78-5.14,5.7-7.69.24-.32.72-.47,1.09-.7.16.45.52.94.44,1.33-.2.95-.51,1.92-.96,2.78-2.81,5.35-6.26,10.25-10.68,14.41-2.96,2.8-5.9,5.64-9.93,7.27Z" fill="#fff"/>
        <path d="M142.95,281.93c-6.48,0-13.14-1.11-19.78-3.31-14.42-4.75-26.49-12.5-35.89-23.03-2.44-2.73-4.31-5.7-6.13-8.58l-.19-.31c-2.11.3-4.3.44-6.67.44s-4.9-.14-8-.46c-3.17-.32-6.34-.46-9.7-.61l-3.06-.14c-4.61-.23-7.29-2.75-7.76-7.28-.22-2.15-.46-4.29-.69-6.43-.4-3.64-.81-7.39-1.15-11.13-.44-4.89-.81-10.57.32-16.4-2.65-1.2-5.36-2.44-8.03-3.84-8.31-4.38-15.58-10.78-22.88-20.14C3.55,168.15-.89,153.97.15,138.58c.8-11.75,4.89-23.22,12.51-35.08,3.5-5.44,7.48-11.1,12.93-15.57,3.07-2.53,6.33-4.69,9.48-6.79-.73-4.93-.47-9.58-.11-13.51.43-4.77.67-9.58.87-14.06.19-4.32,2.99-7.26,7.29-7.69,2.41-.24,4.82-.5,7.23-.76l.29-.03c3.28-.36,6.66-.73,10.01-1.03,2.34-.21,5.13-.43,8.02-.43,3.04,0,5.79.24,8.39.74l.09-.2c1.41-3.2,2.87-6.52,4.88-9.68C94.2,15.4,110.38,4.05,130.16.75c9.06-1.51,18.48-.72,27.75,2.34,15.66,5.17,28.42,13.55,37.93,24.92,1.79,2.14,3.19,4.39,4.54,6.57l.35.56c1.99-.27,4.07-.4,6.34-.4,3.17,0,6.22.25,9.6.56,3.07.28,6.28.42,9.38.56l2.45.11c4.04.19,6.92,2.86,7.33,6.82.2,1.89.41,3.78.62,5.67l.03.3c.47,4.13.95,8.41,1.27,12.67.46,6.01.68,10.41-.33,15.71,11.58,4.71,21.4,12.21,30.02,22.92,9.61,11.95,14.39,25.43,14.21,40.07-.1,8.49-1.96,16.86-5.51,24.89-5.69,12.87-12.29,22.27-20.77,29.59-2.73,2.35-5.65,4.23-8.49,6.04l-.3.19c.76,5.32.42,10.4-.02,14.69-.33,3.26-.47,6.54-.62,10.01l-.13,2.87c-.24,5.1-3.73,7.26-6.91,7.58-2.3.23-4.59.47-6.88.72-4.22.45-8.59.92-12.95,1.28-2.39.2-4.39.29-6.3.29-2.95,0-5.63-.23-8.16-.72-.39.87-.78,1.73-1.17,2.59-7.53,16.43-19.76,28.67-36.33,36.38-7.73,3.6-15.87,5.42-24.18,5.42ZM81.81,244.86l.79,1.24c1.78,2.82,3.62,5.73,5.96,8.36,9.19,10.3,21.02,17.88,35.15,22.54,6.47,2.14,12.95,3.22,19.25,3.22,8.06,0,15.96-1.77,23.46-5.26,16.19-7.53,28.13-19.49,35.49-35.54.49-1.06.97-2.13,1.44-3.2l.28-.63.67.14c2.62.55,5.4.82,8.49.82,1.86,0,3.81-.09,6.16-.29,4.35-.36,8.7-.83,12.91-1.28,2.3-.25,4.6-.49,6.9-.72,1.2-.12,5.14-.91,5.38-5.96l.12-2.81c.15-3.54.29-6.84.63-10.16.44-4.33.78-9.47-.05-14.81l-.09-.55,1.23-.79c2.79-1.78,5.66-3.62,8.3-5.89,8.28-7.15,14.74-16.36,20.33-28.99,3.46-7.82,5.26-15.96,5.36-24.22.17-14.23-4.48-27.35-13.84-38.98-8.59-10.68-18.39-18.09-29.98-22.67l-.67-.26.15-.7c1.12-5.39.9-9.81.44-15.93-.32-4.24-.8-8.49-1.27-12.61l-.03-.3c-.21-1.89-.43-3.78-.63-5.68-.32-3.07-2.56-5.15-5.71-5.29l-2.43-.11c-3.13-.14-6.36-.28-9.47-.56-3.34-.3-6.35-.55-9.45-.55-2.4,0-4.57.15-6.64.46l-.55.08-.93-1.49c-1.33-2.14-2.7-4.34-4.41-6.39-9.31-11.12-21.81-19.33-37.16-24.39-9.01-2.97-18.15-3.74-26.94-2.28-19.28,3.22-35.07,14.31-46.95,32.97-1.95,3.06-3.38,6.31-4.76,9.45l-.65,1.46-.68-.14c-2.68-.57-5.53-.85-8.72-.85-2.83,0-5.56.21-7.87.42-3.33.3-6.71.67-9.98,1.03l-.29.03c-2.42.26-4.83.53-7.25.76-3.5.34-5.6,2.56-5.76,6.06-.2,4.5-.44,9.33-.88,14.13-.36,3.97-.62,8.69.18,13.63l.09.54-.82.54c-3.16,2.1-6.41,4.26-9.44,6.75-5.26,4.33-9.15,9.85-12.58,15.18-7.46,11.61-11.46,22.82-12.24,34.28-1.01,14.97,3.31,28.75,12.84,40.98,7.15,9.16,14.24,15.41,22.33,19.68,2.83,1.49,5.74,2.8,8.55,4.07l.63.28-.13.68c-1.25,5.84-.87,11.61-.42,16.57.34,3.73.75,7.47,1.14,11.08.24,2.16.47,4.31.69,6.46.38,3.68,2.39,5.56,6.14,5.75l3.04.14c3.4.15,6.6.3,9.81.62,3.03.31,5.52.45,7.82.45,2.49,0,4.77-.17,6.96-.51l.55-.09Z" fill="#fff"/>
        <g>
          <path d="M184.01,222.52c0,1.23-1.14,2.32-2.39,2.3-1.13-.01-2.02-1.03-2.01-2.29,0-1.18.98-2.22,2.1-2.25,1.16-.03,2.3,1.09,2.3,2.24Z" fill="#fff"/>
          <g>
            <path d="M230.43,80.57c1.41.63,2.72,1.27,4.06,1.8,11.44,4.5,20.66,11.89,28.32,21.41,8.53,10.61,13.06,22.61,12.89,36.25-.1,7.84-1.83,15.39-5,22.55-4.6,10.4-10.52,19.98-19.21,27.48-3.21,2.77-6.95,4.92-10.51,7.28-.68.45-1,.7-.79,1.6,1.21,5.28,1,10.6.45,15.96-.45,4.38-.56,8.8-.77,13.21-.05,1.09-.33,1.79-1.54,1.91-6.58.66-13.15,1.44-19.74,1.99-5.58.47-11.17.51-16.59-1.31-.21-.07-.45-.07-.8-.12-1.06,2.36-2.09,4.72-3.17,7.06-7.01,15.28-18.28,26.41-33.42,33.45-12.83,5.97-26.2,6.27-39.57,1.86-12.88-4.25-24.22-11.16-33.3-21.33-2.85-3.19-4.98-7.03-7.35-10.62-.44-.67-.75-.87-1.53-.69-5.29,1.2-10.6,1-15.96.46-4.34-.44-8.71-.56-13.07-.78-1.66-.08-1.95-.33-2.11-1.93-.6-5.83-1.3-11.65-1.83-17.49-.55-6.09-.83-12.2,1.11-18.14.3-.93-.03-1.23-.78-1.58-3.75-1.72-7.56-3.35-11.21-5.27-8.47-4.47-15.13-11.06-20.95-18.53-8.72-11.18-12.92-23.83-11.95-38.07.8-11.84,5.24-22.39,11.57-32.26,3.34-5.2,6.91-10.25,11.7-14.19,3.57-2.94,7.52-5.42,11.36-8.01.73-.49.92-.86.73-1.67-1.14-4.86-1.01-9.76-.56-14.7.43-4.76.68-9.55.89-14.33.06-1.39.59-1.88,1.91-2.01,5.83-.57,11.66-1.29,17.49-1.82,6.09-.55,12.2-.82,18.14,1.1.9.29,1.23,0,1.59-.76,2-4.24,3.65-8.72,6.15-12.65,10.4-16.34,24.44-27.78,44.06-31.05,8.43-1.41,16.8-.55,24.9,2.12,13.78,4.55,25.83,11.86,35.23,23.08,2.33,2.79,4.06,6.08,6.1,9.1.23.34.81.75,1.12.67,5.86-1.4,11.75-.91,17.65-.38,4.02.36,8.05.5,12.08.69,1.02.05,1.57.45,1.68,1.48.64,6.16,1.45,12.3,1.91,18.47.55,7.23.76,11.73-1.39,18.7ZM87.89,238.62c.7,1.1,1.24,2.09,1.91,2.97,8.96,11.76,20.36,20.33,34.13,25.64,6.62,2.55,13.43,4.73,20.69,4.04,3.31-.31,6.64-.78,9.84-1.63,9.13-2.43,17.63-6.18,24.52-12.91,8.04-7.85,13.93-17.18,18.64-27.3.15-.33-.08-1.1-.39-1.33-7.08-5.17-11.13-12.58-14.96-20.14-.33-.65-.49-2.08-.22-2.22,1.09-.6,1.46.63,1.96,1.26,2.34,2.93,4.5,6.01,6.94,8.85,3.86,4.5,8.58,8.03,14.26,9.71,9.13,2.7,18.44,2.59,27.73.64,2.4-.5,3.3-1.71,3.32-4.15.02-3.66.19-7.34-.01-10.99-.22-3.92-.56-7.87-1.27-11.72-1.14-6.18-4.65-11.19-9.11-15.39-3.6-3.4-7.7-6.27-11.54-9.42-.62-.51-1.05-1.25-1.57-1.88.88,0,1.91-.3,2.6.06,2.81,1.48,5.63,3.01,8.24,4.81,6.06,4.18,11.2,9.26,14.69,15.84.08.15.26.24.61.57,2.53-2.02,5.17-3.9,7.57-6.06,8.83-7.95,15.57-17.43,20.03-28.44,3.48-8.6,5.97-17.4,4.17-26.89-2.09-11-5.97-21.16-13.77-29.42-7.78-8.24-17.24-14.13-27.43-18.94-.66-.31-1.07-.27-1.53.36-5.25,7.18-12.75,11.34-20.52,15.13-.53.26-1.27.06-1.92.07.32-.56.57-1.18.99-1.65.43-.48,1.05-.78,1.57-1.19,2.58-2.02,5.24-3.96,7.71-6.11,4.47-3.89,8.01-8.59,9.68-14.29,2.68-9.13,2.57-18.45.61-27.74-.49-2.32-1.66-3.21-4.06-3.24-3.33-.04-6.68-.19-10-.01-4.06.22-8.15.5-12.16,1.15-6.57,1.07-11.85,4.75-16.26,9.48-3.54,3.79-6.53,8.09-9.8,12.14-.28.34-.79.5-1.19.74-.13-.5-.45-1.04-.36-1.5.17-.86.48-1.73.91-2.5,1.11-1.96,2.24-3.91,3.49-5.77,4.41-6.55,9.73-12.14,16.8-15.88.07-.03.09-.15.16-.28-.14-.26-.27-.55-.44-.83-.4-.64-.77-1.3-1.22-1.89-9.02-11.84-20.49-20.46-34.37-25.78-7.72-2.96-15.61-5.03-24.07-3.65-9.96,1.62-19.28,4.88-27.21,11.14-10.13,8-16.75,18.76-22.24,30.27-.33.69-.18,1.08.43,1.52,7,5.08,11.03,12.42,14.85,19.88.38.73,1.26,1.74.18,2.44-.25.16-1.46-.86-2-1.53-2.3-2.84-4.4-5.85-6.78-8.62-3.91-4.52-8.65-8.1-14.4-9.76-9.23-2.66-18.63-2.59-28-.48-1.83.41-2.9,1.61-2.87,3.47.09,6.14.11,12.29.48,18.42.23,3.78.99,7.52,2.86,10.95,3.14,5.76,7.47,10.44,12.64,14.39,2.24,1.71,4.56,3.3,6.81,4.99.32.24.46.73.68,1.1-.44.16-.92.52-1.32.44-.91-.18-1.88-.41-2.64-.91-3.8-2.48-7.76-4.79-11.25-7.67-4.3-3.55-8.14-7.64-10.61-12.96-1.08.69-2.1,1.26-3.03,1.97-10.36,7.9-18.31,17.77-23.66,29.63-4.38,9.7-7.48,19.66-5.29,30.55,1.9,9.49,5.16,18.41,11.33,25.93,8.03,9.78,18.57,16.29,29.88,21.63.32.15,1.1-.08,1.33-.38,5.18-7.06,12.57-11.15,20.14-14.96.66-.33,2.09-.49,2.22-.24.56,1.09-.63,1.46-1.27,1.97-2.93,2.34-6.01,4.5-8.85,6.95-4.53,3.9-8.08,8.64-9.74,14.4-2.66,9.24-2.61,18.63-.47,27.99.43,1.88,1.64,2.92,3.61,2.88,6.14-.11,12.29-.17,18.41-.53,3.59-.21,7.16-.92,10.43-2.65,5.57-2.95,10.2-7.01,14.06-11.95,1.97-2.51,3.78-5.14,5.7-7.69.24-.32.72-.47,1.09-.7.16.45.52.94.44,1.33-.2.95-.51,1.92-.96,2.78-2.81,5.35-6.26,10.25-10.68,14.41-2.96,2.8-5.9,5.64-9.93,7.27Z" fill="#fff"/>
            <path d="M231.42,126.75c.38-.2.74-.45,1.14-.6,7.33-2.81,13.59-7.09,18.35-13.42.45-.59,1.01-1.12,1.58-1.58,1.35-1.09,2.52-1.18,3.75-.39,1.08.7,1.8,2.24,1.26,3.59-.58,1.44-1.28,3.05-2.42,4-6.5,5.46-13.92,8.72-22.55,8.84-.34,0-.69-.09-1.04-.14-.03-.1-.05-.2-.08-.3ZM256.16,114.77c.1-.5.09-1-.06-1.4-.43-1.17-1.56-1.46-2.63-.93-.41.2-.82.49-1.12.83-1.2,1.37-2.4,2.75-3.58,4.14-.28.32-.6.64-.83.99-.17.26-.27.49-.49.72-.59.61-1.15,1.24-1.62,1.96.12-.18.95-.33,1.18-.41.41-.15.83-.3,1.24-.46.71-.27,1.46-.48,2.13-.82,1.53-.79,3.05-1.61,4.51-2.53.63-.4,1.11-1.24,1.28-2.09Z" fill="#fff"/>
            <path d="M155.04,231.53c.22.42.47.83.64,1.27,2.77,7.2,6.97,13.35,13.15,18.06.7.53,1.32,1.2,1.89,1.87.93,1.12,1.14,2.37.29,3.63-.83,1.23-2.08,1.56-3.47,1.32-2.17-.38-3.69-1.77-5.01-3.41-3.2-3.96-5.29-8.54-6.8-13.34-.93-2.97-1.41-6.1-1.1-9.26.13-.05.27-.1.4-.15ZM169.61,254.18c-.28-.41-.66-1.3-1.31-1.89-1.35-1.25-2.75-2.44-4.16-3.62-.34-.28-.68-.64-1.05-.87-.29-.17-.59-.28-.87-.47-.33-.23-.65-.49-.95-.77-.14-.13-.71-.58-.72-.77.07,1.73.9,2.95,1.64,4.43.78,1.55,1.59,3.1,2.55,4.55.54.81,1.77,1.36,2.79,1.61,1.21.29,2.07-.59,2.08-2.19Z" fill="#fff"/>
            <path d="M50.26,155.15c-.48.23-.94.5-1.43.69-7.04,2.75-13.07,6.87-17.75,12.89-.68.88-1.49,1.71-2.4,2.34-1.91,1.31-4.18.26-4.56-2.03-.3-1.82.34-3.47,1.63-4.59,2.07-1.8,4.24-3.57,6.61-4.92,5.1-2.91,10.55-4.87,16.54-4.83.41,0,.81.04,1.22.07.05.13.09.26.14.39ZM27.57,169.71c.39-.25,1.26-.59,1.82-1.2,1.31-1.41,2.56-2.88,3.8-4.35.58-.69,1.11-1.37,1.73-2.02.68-.72,1.36-1.44,2.05-2.16-1.54.97-3.33,1.29-4.92,2.1-1.7.86-3.39,1.74-4.99,2.76-.05.03-.1.06-.14.09-.75.49-1.25,1.63-1.5,2.56-.32,1.25.56,2.21,2.17,2.21Z" fill="#fff"/>
            <path d="M126.72,49.95c-.07,0-.15-.03-.24-.09-.3-.17-.42-.59-.53-.88-2.78-7.15-6.97-13.24-13.1-17.94-.84-.64-1.62-1.46-2.19-2.35-1.21-1.87-.14-4.09,2.07-4.46,1.65-.28,3.22.2,4.27,1.36,1.82,1.99,3.64,4.07,4.99,6.38,3.04,5.24,5.17,10.83,5.09,17.05,0,.34.02.97-.36.93ZM112.12,27.65c.11.68.56,1.34,1.04,1.77,1.24,1.13,2.51,2.23,3.79,3.31.77.65,1.62,1.02,2.47,1.58s1.63,1.23,2.3,2c-.48-.79-.86-1.63-1.21-2.48-.31-.76-.64-1.36-1.05-2.05-.96-1.6-1.73-3.31-2.72-4.9-.43-.69-1.49-1.14-2.35-1.36-.49-.12-1.01-.09-1.45.18s-.58.64-.74,1.09c-.11.28-.12.58-.08.87Z" fill="#fff"/>
            <path d="M231.36,151.03c3.66,1.01,7.55,1.87,11.3,3.17,3.68,1.27,7.26,2.95,10.14,5.66,1.33,1.25,2.46,2.81,3.31,4.43.78,1.49.14,3.18-1.02,4.05-1.08.8-2.53.8-3.93-.23-.97-.72-1.87-1.59-2.61-2.53-3.6-4.56-8.23-7.77-13.3-10.44-1.49-.79-3.03-1.5-4.5-2.33-.38-.21-.6-.72-.9-1.09.39-.18.79-.36,1.51-.69ZM252.47,167.19c1.72.02,2.56-.75,2.42-1.93-.1-.8-.36-1.69-.84-2.33-2.26-3.06-5.51-4.69-9-5.9-.36-.13-.86.14-1.29.23.1.46.06,1.05.33,1.37,2.09,2.46,4.19,4.9,6.39,7.25.63.67,1.58,1.05,1.98,1.3Z" fill="#fff"/>
            <path d="M150.91,50.37c1.02-3.67,1.89-7.51,3.17-11.21,1.31-3.77,3.15-7.32,5.78-10.39,1.27-1.48,2.66-2.78,4.63-3.26,1.45-.36,3.01.16,3.75,1.28.83,1.26.67,2.54-.18,3.67-.7.93-1.5,1.82-2.41,2.53-4.8,3.7-8.01,8.61-10.78,13.87-.54,1.03-1.04,2.07-1.58,3.1-.21.4-.4.96-.69,1.29-.27.31-.81.2-1.15.07-.35-.14-.37-.63-.53-.96ZM164.6,26.84c-.51.27-1.5.62-2.27,1.25-2.7,2.2-4.19,5.22-5.35,8.41-.15.43.14,1.02.23,1.53.49-.16,1.1-.18,1.47-.49,2.28-1.93,4.57-3.86,6.74-5.92.73-.7,1.33-1.7,1.61-2.68.35-1.2-.68-2.16-2.42-2.11Z" fill="#fff"/>
            <path d="M50.05,130.81c-3.53-.98-7.37-1.85-11.08-3.13-3.68-1.28-7.16-3.06-10.18-5.62-1.53-1.3-2.86-2.72-3.37-4.73-.39-1.52.07-2.99,1.18-3.78,1.25-.88,2.55-.71,3.68.11,1.01.73,1.98,1.6,2.76,2.58,3.69,4.67,8.43,7.97,13.65,10.66,1.28.66,2.63,1.25,3.86,2.01,1.16.71.58,1.53-.51,1.91ZM29.21,114.68c-1.8-.02-2.69.96-2.44,2.22.15.76.45,1.55.91,2.16,1.27,1.69,2.94,3,4.79,4.01.46.25.94.51,1.43.71.44.18.9.23,1.35.43,1.12.49,2.28.94,3.5,1.12-.25-.04-.77-.85-.93-1.05-.31-.38-.61-.78-.88-1.19-.48-.71-.73-1.42-1.29-2.07-1.4-1.63-2.82-3.25-4.29-4.82-.69-.74-1.69-1.2-2.15-1.51Z" fill="#fff"/>
            <path d="M130.43,231.69c.06,1.68-.7,3.69-1.05,5.02-.55,2.06-1.13,4.11-1.83,6.13-1.27,3.68-2.97,7.24-5.67,10.12-1.24,1.33-2.83,2.44-4.45,3.27-1.46.75-3.1.13-3.94-.97-.87-1.14-.87-2.56.22-4.04.69-.93,1.52-1.8,2.43-2.51,4.56-3.59,7.78-8.21,10.46-13.27.77-1.45,1.47-2.94,2.27-4.37.24-.43.7-.8,1.09-1.08.31.49.45,1.07.47,1.7ZM124.88,244.51c0-.06.01-.11.02-.17.04-.36-.05-1.95.18-2.16-1.08.99-1.97,2.11-3.1,3.02-1.33,1.07-2.57,2.28-3.84,3.42-.98.88-2.01,1.7-2.86,2.69-.72.83-1.16,1.94-.37,2.97.83,1.09,2.06.99,3.07.39,2.18-1.27,3.84-3.18,5.02-5.39.56-1.05.99-2.16,1.51-3.21.25-.5.31-1.01.37-1.56Z" fill="#fff"/>
            <path d="M226.83,157.76c.56.04,1.14-.01,1.66.14,5.96,1.75,12.01,9.17,12.55,15.35.19,2.11-.61,3.71-2,4.05-1.61.39-3.08-.66-3.78-2.79-.3-.93-.55-1.89-.71-2.86-.79-4.77-3.13-8.69-6.56-12-.46-.45-1.09-.72-1.64-1.07.16-.28.31-.55.47-.83ZM239.97,174.13c-.52-3.79-2.05-6.56-4.13-9.04-.32-.38-1.02-.45-1.54-.66-.07.59-.3,1.22-.18,1.78.47,2.24,1.05,4.46,1.6,6.68.13.54.22,1.12.47,1.6.47.91,1.21,1.86,2.27,1.41.73-.31,1.16-1.34,1.51-1.78Z" fill="#fff"/>
            <path d="M40.64,108.04c0-1.96.81-3.28,2.15-3.5,1.44-.24,2.84.71,3.47,2.47.38,1.06.7,2.15.87,3.25.77,4.95,3.3,8.9,6.84,12.31.36.35.57.87.84,1.32-.56.03-1.17.23-1.67.07-6.38-1.95-12.51-9.78-12.51-15.92ZM41.86,107.75c-.06.24-.08.47-.06.69.15,1.56.77,3.18,1.47,4.57.67,1.34,1.52,2.57,2.48,3.71.34.41,1.09.48,1.65.7.05-.6.24-1.23.13-1.79-.44-2.1-.98-4.18-1.5-6.26-.18-.72-.31-1.48-.65-2.13-.45-.86-1.24-1.7-2.23-1.24-.62.28-1.11,1.02-1.29,1.75Z" fill="#fff"/>
            <path d="M160.67,228.59c2.43,2.83,5.28,5.11,8.82,6.32,1.94.67,3.98,1.03,5.98,1.51,1.45.35,2.81.82,3.58,2.23.91,1.67.29,3.18-1.57,3.51-.99.18-2.1.21-3.06-.05-6.01-1.63-10.51-5.24-13.5-10.69-.43-.79-.52-1.77-.77-2.66.17-.06.35-.12.52-.17ZM175.14,241.39c1.41.06,2.25-.31,2.54-1.36.31-1.09-.42-1.75-1.33-1.97-1.73-.42-3.47-.76-5.21-1.09-.7-.13-1.37-.08-2.07-.28-.33-.09-1.95-.55-2.02-.92.12.6.58,1.08,1.06,1.47,1.08.87,2.02,1.79,3.22,2.52,1.03.63,2.56,1.58,3.8,1.63Z" fill="#fff"/>
            <path d="M173.9,40.75c1.78.01,3.01.8,3.3,2.02.32,1.37-.44,2.81-2.04,3.43-1.26.49-2.59.83-3.92,1.07-4.65.85-8.45,3.18-11.71,6.51-.3.3-.56.64-.89.89-.19.15-.54.32-.71.24-.18-.09-.32-.45-.32-.69,0-.36.12-.74.23-1.09,1.92-6.03,9.05-11.76,15.34-12.33.28-.03.56-.04.72-.05ZM173.67,42c-1.03-.08-2.16.17-2.89.46-2.03.8-4.16,1.86-5.72,3.41-.39.39-.49,1.08-.72,1.64.6.05,1.23.26,1.79.14,2.1-.44,4.18-.99,6.27-1.5.64-.16,1.31-.24,1.89-.52.97-.46,1.96-1.23,1.49-2.36-.35-.85-1.19-1.2-2.11-1.27Z" fill="#fff"/>
            <path d="M121,52.98c-.13,0-.27-.03-.34-.08-.29-.18-.53-.58-.77-.82-3.3-3.3-7.14-5.57-11.84-6.24-1.06-.15-2.17-.34-3.12-.8-.88-.42-1.79-1.09-2.31-1.89-1.03-1.58-.27-3.15,1.6-3.43,1.05-.16,2.2-.21,3.2.08,6,1.74,10.56,5.33,13.44,10.93.25.49.35,1.04.45,1.58.03.17.14.43.01.58-.06.07-.2.1-.33.1ZM112.37,45.35c.16-.09.58-.19.73-.45.12-.19,0-.71-.19-.87-2-1.64-4.11-3.13-6.75-3.5-1.1-.16-1.99.34-2.22,1.48-.22,1.1.63,1.67,1.5,1.89,2.22.54,4.48.95,6.93,1.46Z" fill="#fff"/>
            <path d="M123.93,226.9c0,.5.11,1.04-.02,1.51-1.65,6.12-9.36,12.4-15.62,12.76-.33.02-.66.03-.98-.01-1.33-.18-2.49-.63-2.86-2.09-.31-1.25.46-2.66,1.86-3.28.98-.43,2.02-.81,3.07-.97,5.41-.78,9.76-3.42,13.4-7.38.21-.23.49-.41.73-.61.14.02.28.05.41.07ZM107.66,240.08c2.09-.27,4.11-.92,5.95-1.95,2-1.13,3.3-3.21,4.75-4.96-1.43.84-2.9,1.07-4.48,1.44-1.74.4-3.48.83-5.21,1.26-.49.12-1.01.25-1.45.49-.91.49-1.8,1.26-1.31,2.32.32.69,1.31,1.07,1.75,1.41Z" fill="#fff"/>
            <path d="M53.08,160.63c-1.22,1.41-2.51,2.76-3.63,4.23-2.02,2.66-3.3,5.64-3.74,8.99-.15,1.11-.39,2.26-.88,3.24-.41.83-1.13,1.64-1.92,2.12-1.5.9-2.99.18-3.27-1.55-.17-1.09-.25-2.31.05-3.34,1.74-5.95,5.34-10.48,10.86-13.38.75-.39,1.68-.44,2.52-.65,0,.11.01.22.02.33ZM40.39,175.32c0,1.53.47,2.48,1.52,2.46.63-.01,1.62-.75,1.79-1.35.48-1.67.82-3.38,1.14-5.09.29-1.57.09-3.12.66-4.64-1.1,1.3-2.07,2.63-3.03,4.04-.81,1.19-2.09,3.07-2.09,4.58Z" fill="#fff"/>
            <path d="M228.57,121.24c.69-.74,1.41-1.46,2.08-2.21,2.81-3.15,4.71-6.74,5.34-10.96.17-1.15.44-2.32.9-3.38.31-.73.93-1.43,1.59-1.88,1.64-1.09,3.22-.42,3.58,1.52.17.9.23,1.91,0,2.78-1.61,6.18-5.25,10.8-10.89,13.81-.75.4-1.68.46-2.53.67l-.07-.35ZM241.28,106.63c.06-1.47-.55-2.46-1.47-2.6-1.11-.17-1.7.6-1.92,1.48-.33,1.35-.53,2.73-.88,4.07-.34,1.29-.53,2.6-.99,3.87-.02.06-.03.16.04.17.03,0,.06-.02.09-.04.62-.51,1.23-1.02,1.85-1.53.49-.4,1.09-.75,1.43-1.28.79-1.23,1.45-2.56,1.81-3.97.01-.05.03-.11.04-.16Z" fill="#fff"/>
            <path d="M112.88,78.58c1.6.01,2.8,1.27,2.77,2.91-.03,1.54-.92,2.41-2.48,2.43-1.59.02-2.79-1.2-2.82-2.88-.03-1.32,1.17-2.48,2.54-2.47Z" fill="#fff"/>
            <path d="M197.87,113.18c.03-1.59,1.3-2.76,2.97-2.72,1.25.03,2.37,1.21,2.38,2.5.01,1.6-1.24,2.81-2.89,2.8-1.59,0-2.5-.95-2.47-2.58Z" fill="#fff"/>
            <path d="M166.05,200.42c.02-1.64.9-2.47,2.58-2.44,1.56.03,2.75,1.34,2.7,2.99-.04,1.24-1.22,2.34-2.52,2.35-1.6,0-2.77-1.23-2.75-2.89Z" fill="#fff"/>
            <path d="M81.25,166.17c1.66-.03,2.56.83,2.57,2.46.01,1.57-1.22,2.76-2.9,2.79-1.28.02-2.41-1.08-2.45-2.39-.06-1.64,1.1-2.83,2.78-2.86Z" fill="#fff"/>
            <path d="M200.2,165.28c-1.28-.04-2.53-1.32-2.49-2.57.04-1.2,1.3-2.31,2.6-2.26,1.31.04,2.19,1.06,2.13,2.44-.07,1.41-1.01,2.43-2.23,2.39Z" fill="#fff"/>
            <path d="M162.83,79.37c1.43.08,2.41,1.04,2.33,2.27-.08,1.29-1.39,2.51-2.63,2.42-1.21-.08-2.27-1.37-2.2-2.65.08-1.33,1.05-2.13,2.5-2.05Z" fill="#fff"/>
            <path d="M83.94,119.22c-.05,1.22-1.28,2.27-2.61,2.22-1.32-.05-2.16-1.04-2.09-2.46.08-1.43,1.01-2.4,2.25-2.35,1.3.05,2.5,1.33,2.45,2.59Z" fill="#fff"/>
            <path d="M121.33,200.43c-.03,1.3-1.05,2.19-2.44,2.13-1.4-.06-2.42-1.03-2.37-2.25.04-1.3,1.33-2.54,2.57-2.48,1.22.06,2.28,1.29,2.25,2.6Z" fill="#fff"/>
            <path d="M185.21,43.28c-1.24-.05-2.21-1.16-2.16-2.48.05-1.24,1.08-2.21,2.31-2.16,1.31.05,2.48,1.11,2.47,2.24-.01,1.28-1.3,2.46-2.62,2.41Z" fill="#fff"/>
            <path d="M40.75,98.72c-1.24-.02-2.24-1.03-2.23-2.24.01-1.26,1.1-2.53,2.17-2.55,1.24-.02,2.48,1.27,2.48,2.58,0,1.23-1.1,2.24-2.42,2.21Z" fill="#fff"/>
            <path d="M98.61,240.91c.03,1.3-.86,2.27-2.12,2.31-1.36.04-2.67-1.02-2.67-2.17,0-1.23,1.18-2.38,2.47-2.42,1.28-.04,2.3.95,2.33,2.28Z" fill="#fff"/>
            <path d="M232.13,89.47c1.27-.04,2.44,1.11,2.45,2.4,0,1.19-1.01,2.15-2.31,2.17-1.21.02-2.32-.97-2.39-2.13-.07-1.2,1.04-2.4,2.25-2.44Z" fill="#fff"/>
            <path d="M240.89,187.94c-1.29-.03-2.43-1.3-2.37-2.64.06-1.25,1.16-2.2,2.49-2.13,1.26.06,2.16,1.05,2.11,2.32-.05,1.35-1.08,2.48-2.22,2.45Z" fill="#fff"/>
            <path d="M49.48,187.86c1.23,0,2.29,1.02,2.3,2.19,0,1.22-1.12,2.38-2.31,2.38-1.29,0-2.39-1.17-2.35-2.48.03-1.2,1.05-2.09,2.36-2.09Z" fill="#fff"/>
            <path d="M91.73,47.23c1.22-.02,2.15.93,2.2,2.25.05,1.26-1.03,2.4-2.25,2.4-1.18,0-2.27-1.04-2.33-2.2-.06-1.3,1.04-2.42,2.37-2.45Z" fill="#fff"/>
            <path d="M106.3,32.13c.04,1.19-.84,2.04-2.14,2.06-1.17.02-1.9-.67-1.97-1.87-.07-1.22.79-2.18,1.99-2.21,1.06-.02,2.07.94,2.11,2.01Z" fill="#fff"/>
            <path d="M249.6,102.31c1.18,0,2.05.85,2.06,2.01,0,1.06-.99,2.1-2.03,2.11-1.2.02-2.05-.88-2.06-2.17-.01-1.22.76-1.96,2.04-1.95Z" fill="#fff"/>
            <path d="M34.09,177.58c.03,1.25-.69,1.97-1.99,1.98-1.2.01-2.06-.79-2.1-1.95-.04-1.09.88-2.06,1.98-2.11,1.23-.05,2.08.77,2.11,2.07Z" fill="#fff"/>
            <path d="M179.45,249.78c-.03,1.18-.88,2-2.06,1.99-1.1-.01-2.02-.97-2.01-2.08,0-1.21.88-2.01,2.19-2,1.2.01,1.91.81,1.88,2.09Z" fill="#fff"/>
            <path d="M174.81,30.5c1.13.03,2.03.91,1.99,1.94-.04.99-1.08,1.92-2.08,1.89-1.12-.04-2.04-.95-1.99-1.95.06-1.06,1-1.9,2.08-1.87Z" fill="#fff"/>
            <path d="M249.33,172.85c1.1.02,1.92.87,1.92,1.99,0,1.16-.81,2.08-1.83,2.08-1,0-1.94-.98-1.94-2.01,0-1.14.85-2.08,1.85-2.06Z" fill="#fff"/>
            <path d="M106.94,251.37c-1.18.02-2.06-.75-2.07-1.82,0-1.02.94-1.96,1.98-1.96,1.14,0,2.07.83,2.06,1.85-.01,1.12-.83,1.92-1.97,1.94Z" fill="#fff"/>
            <path d="M34.21,107.09c-.05,1.13-.96,2.02-1.98,1.94-1.1-.09-1.89-.97-1.84-2.08.05-1.17.88-1.99,1.96-1.94,1.04.05,1.91,1.02,1.86,2.08Z" fill="#fff"/>
            <path d="M62.86,232.27c-1.05-.07-1.73-.59-1.81-1.62-.09-1.08.56-1.69,1.61-1.71,1-.02,1.79.45,1.81,1.55.02,1.02-.58,1.64-1.6,1.79Z" fill="#fff"/>
            <path d="M229.54,221.14c-1.05-.07-1.73-.59-1.81-1.62-.09-1.08.56-1.69,1.61-1.71,1-.02,1.79.45,1.81,1.55.02,1.02-.58,1.64-1.6,1.79Z" fill="#fff"/>
            <path d="M123.88,206.28c-.37.24-.74.47-1.12.71.37-.24.74-.47,1.12-.71Z" fill="#fff"/>
            <path d="M153.72,77.35c.2-.05.4-.1.6-.15-.2.05-.4.1-.6.15Z" fill="#fff"/>
            <path d="M208.21,113.74s-.02.01-.02.01c0,0,.02-.01.02-.01Z" fill="#fff"/>
            <path d="M113.98,219.09c-.12-.03-.25-.05-.37-.08.12.03.25.05.37.08Z" fill="#fff"/>
            <path d="M134.28,243.2c.2-.1.4-.2.6-.29-.2.1-.4.2-.6.29Z" fill="#fff"/>
            <path d="M134.85,242.92c.1-.1.2-.2.3-.31-.1.1-.2.2-.3.31Z" fill="#fff"/>
            <path d="M243.1,134.68c-.1.1-.21.2-.31.31.1-.1.21-.2.31-.31Z" fill="#fff"/>
            <path d="M247.32,134.96c-.19.19-.39.39-.58.58.19-.19.39-.39.58-.58Z" fill="#fff"/>
            <path d="M246.75,135.53c-.1.1-.2.2-.3.3.1-.1.2-.2.3-.3Z" fill="#fff"/>
            <path d="M135.44,238.67c-.76.57-1.52,1.14-2.28,1.71.76-.57,1.52-1.14,2.28-1.71Z" fill="#fff"/>
            <path d="M136,250.23c-.2.1-.4.2-.6.3.2-.1.4-.2.6-.3Z" fill="#fff"/>
            <path d="M136.56,249.66c-.1.1-.2.2-.3.3.1-.1.2-.2.3-.3Z" fill="#fff"/>
            <path d="M136.28,249.94c-.1.1-.2.2-.3.3.1-.1.2-.2.3-.3Z" fill="#fff"/>
            <path d="M249.56,118.42c1.18-1.47,2.31-3,3.58-4.39.34-.37,1.23-.42,1.56-.04.31.36.29.99.07,1.38-1.11,1.91-3.19,2.4-4.94,3.35-.09-.1-.18-.2-.26-.3Z" fill="#fff"/>
            <path d="M163.41,249.62c.45.43.92.83,1.45,1.23.9.68,1.8,1.37,2.64,2.13.42.38.81,1.41.6,1.75-.53.83-1.55.56-2.05-.07-1.44-1.83-2.84-3.77-3.55-6,.3.35.6.66.91.96Z" fill="#fff"/>
            <path d="M32.15,163.38c-1.11,1.42-2.14,2.91-3.36,4.23-.31.34-.86.5-1.29.33-.68-.26-.73-1.24-.36-1.77,1.17-1.67,3.12-2.16,5.01-2.79Z" fill="#fff"/>
            <path d="M118.34,32.08c-.11-.04-.22-.08-.33-.14-.44-.2-.86-.64-1.25-.94-.85-.65-1.7-1.31-2.53-1.99-.61-.5-1.34-1.27-.55-1.95.36-.31,1.7-.12,2.05.3.67.82,1.26,1.71,1.82,2.61.28.45.58.9.85,1.35.21.36.32.75.54,1.11-.17-.19-.38-.27-.6-.35Z" fill="#fff"/>
            <path d="M246.41,158.82c3.01,1.19,5.52,2.71,7.16,5.33.28.44.06,1.2.07,1.81-.56-.09-1.32.01-1.63-.31-1.87-1.93-3.65-3.96-5.44-5.98-.12-.13-.08-.41-.15-.85Z" fill="#fff"/>
            <path d="M158.96,35.35c.65-2.11,1.67-4.12,3.24-5.69.49-.49,1.53-1.74,2.25-1.8,1.11-.09,1.53,1.33.97,2.09-1.71,2.3-4.13,3.79-6.46,5.4Z" fill="#fff"/>
            <path d="M35.29,122.83c-1.43-.48-2.91-1.03-4.13-1.88s-2.33-1.99-3.12-3.29c-.21-.35-.2-1.18.12-1.48s1.07-.34,1.38-.01c1.13,1.19,2.22,2.41,3.31,3.64.5.56.99,1.12,1.43,1.71.23.31.53.59.82.85.2.18.52.58.78.67-.19-.07-.39-.13-.58-.2Z" fill="#fff"/>
            <path d="M123,246.54c-.42.94-.84,1.88-1.35,2.77-.48.85-1.04,1.66-1.69,2.39-.57.63-1.41,1.61-2.22,1.92-.68.26-2-.27-1.78-1.19.17-.73,1.37-1.49,1.9-1.97,1.9-1.69,3.93-3.23,5.65-5.07-.17.38-.34.77-.51,1.15Z" fill="#fff"/>
            <path d="M236.09,166.82c1.46,2.21,2.86,4.45,2.78,7.29,0,.3-.31.76-.57.84-.26.08-.71-.16-.93-.39-.28-.29-.51-.7-.59-1.09-.42-2.14-.79-4.3-1.17-6.45.16-.07.32-.13.48-.2Z" fill="#fff"/>
            <path d="M46.15,115.28c-.38-.31-.73-.66-1.02-1.07-.33-.46-.53-.97-.76-1.48-.5-1.1-.98-2.21-1.44-3.33-.03-.07-.06-.13-.08-.2-.12-.36-.15-.7-.12-1.08.02-.34.21-.55.51-.72.17-.09.37-.12.56-.11.51.03.85.25.96.78.45,2.27.88,4.54,1.39,7.21Z" fill="#fff"/>
            <path d="M171.89,238.2c1.35.18,2.7.44,4.02.74.86.19.5,1.61-.27,1.38-.95-.28-1.88-.62-2.8-.96-.87-.32-1.59-.84-2.38-1.33.48.04.96.1,1.44.17Z" fill="#fff"/>
            <path d="M166.53,46.24c.4-.51.54-.85.78-.96,1.82-.82,3.65-1.62,5.5-2.38.32-.13.77-.13,1.1-.03.36.11.87.37.93.65.06.29-.29.72-.55,1.02-.17.2-.47.34-.73.39-2.23.43-4.47.83-7.04,1.31Z" fill="#fff"/>
            <path d="M109.8,43.67c-1.39-.24-2.78-.45-4.16-.76-.68-.15-.39-1.16.12-1.31s1.12.04,1.59.19.94.38,1.38.64c.12.07,1.22.69,1.19.78-.04.15-.09.3-.13.45Z" fill="#fff"/>
            <path d="M114.74,236.17c-.15.18-.29.34-.46.49-.58.48-1.36.85-2.03,1.2-1.42.73-2.97,1.19-4.58,1.14-.31-.01-.85-.33-.86-.53-.02-.34.24-.74.48-1.04.16-.2.46-.36.72-.41,1.34-.27,2.68-.52,4.03-.78,1.21-.23,2.55-.29,3.61-.96-.36.23-.62.58-.89.91Z" fill="#fff"/>
            <path d="M42.06,176.52c-.19-.04-.36-.24-.44-.54-.14-.46-.07-1.01.04-1.48.23-.99.83-1.88,1.59-2.54.29,1.41.06,2.98-.66,4.23-.16.27-.35.37-.52.33Z" fill="#fff"/>
            <path d="M238.18,109.87c.06-.48.11-.96.18-1.43.13-.84.26-1.68.44-2.51.22-.99,1.63-.51,1.4.28-.25.86-.57,1.7-.89,2.53-.15.38-.25.81-.5,1.13-.14.18-.27.36-.42.54-.08.1-.36.33-.38.45.06-.33.11-.67.15-1Z" fill="#fff"/>
          </g>
        </g>
        <path d="M156.19,444.61l-.04.04" fill="#fff"/>
      </g>
      <g>
        <path d="M30.62,346.14v-12.75l1.4-.2.2.2c.07,1.07.27,3.74.87,5.47,1.54,4.61,5.81,6.81,10.48,6.81,6.01,0,9.54-3.6,9.54-8.14,0-3.6-3.4-5.74-8.28-8.08-1.27-.67-3-1.4-4.27-2-5.87-2.54-9.88-5.67-9.88-12.01,0-5.67,4.61-11.28,13.21-11.28s12.08,3.8,12.08,7.41c0,2.07-1.27,4.07-3.14,5.21l-1.33-.67c.07-.6.07-1.07.07-1.6,0-4.54-1.8-8.68-7.74-8.68s-9.48,3.6-9.48,7.54,4.07,6.14,8.94,8.34c1.07.53,2.74,1.27,3.94,1.87,5.87,2.74,9.54,5.94,9.54,12.01,0,5.14-3.67,11.75-13.82,11.75-4.87,0-9.68-1.2-12.35-1.2Z" fill="#fff"/>
        <path d="M79.34,330.12v-11.95c0-3.2-.07-6.14-.2-8.41-.07-.93-.33-3-1.47-3.14-1.13-.13-2.54-.2-3.34-.2l-.2-.2.2-1.4h17.02l.2,1.4-.2.2c-.8,0-3.14.07-4.2.2-1.2.13-1.47,2.2-1.54,3.14-.13,3.67-.2,7.47-.2,11.28v9.74c0,7.01.13,14.68,10.28,14.68,8.21,0,12.48-5.07,12.48-15.35v-8.01c0-3.54-.27-9.28-.53-11.55-.33-2.27-1-3.6-2-3.8-1.07-.2-2.87-.33-3.67-.33l-.2-.2.2-1.4h13.68l.2,1.4-.2.2c-.53,0-1.47.13-2.54.33-1.13.13-1.94,1.27-2.27,3.74-.4,2.94-.6,8.01-.6,11.21v8.41c0,12.08-5.74,17.22-14.68,17.22-12.61,0-16.22-8.48-16.22-17.22Z" fill="#fff"/>
        <path d="M133.93,345.27l.2-.2c.8,0,2.67-.07,3.8-.2,1.13-.13,1.4-2.2,1.47-3.14.2-5.21.2-10.55.2-15.88,0-4.14-.07-11.35-.2-16.02,0-1-.33-3.07-1.47-3.2-1.13-.13-2.94-.2-3.74-.2l-.2-.2.2-1.4h16.42c9.81,0,14.95,4.41,14.95,11.41,0,7.94-6.21,12.55-15.28,12.55-1.47,0-3.47-.13-4.67-.27,0,5.47,0,8.94.2,13.15.07.93.33,3,1.54,3.14,1.07.13,4.94.27,5.81.27l.2.2-.13,1.4h-19.09l-.2-1.4ZM159.29,316.44c0-5.21-1.8-10.01-8.88-10.01h-4.81v20.49c1.27.13,2.74.2,4.14.2,6.87,0,9.54-4.4,9.54-10.68Z" fill="#fff"/>
        <path d="M182.58,345.27l.2-.2c.8,0,2.6-.07,3.74-.2,1.13-.13,1.4-2.2,1.47-3.14.2-5.21.2-10.55.2-15.88,0-4.14-.07-11.35-.2-16.02,0-1-.33-3.07-1.47-3.2-1.13-.13-2.94-.2-3.74-.2l-.2-.2.2-1.4h31.1v11.41l-1.33.2-.2-.2c0-.4-.13-1.67-.27-2.34-.53-4.27-2.87-6.14-5.47-6.94-1.13-.33-2.94-.53-5.34-.53h-7.01v18.22h5.74c3.4,0,6.07-1.2,6.54-4.61.13-.87.27-2,.27-2.54l.2-.2,1.4.2v15.95l-1.4.2-.2-.2c0-.6-.13-1.74-.27-2.6-.47-3.4-3.14-4.61-6.54-4.61h-5.74v18.82h6.01c1.4,0,4.6-.13,6.07-.53,3.4-.8,6.21-2.4,7.21-7.07.2-.8.47-2.87.53-3.67l.27-.2,1.27.13v12.95h-32.84l-.2-1.4Z" fill="#fff"/>
        <path d="M234.3,345.27l.2-.2c.8,0,2.6-.07,3.74-.2,1.13-.13,1.4-2.2,1.47-3.14.2-5.21.2-10.55.2-15.88,0-4.14-.07-11.35-.2-16.02,0-1-.33-3.07-1.47-3.2-1.13-.13-2.94-.2-3.74-.2l-.2-.2.2-1.4h31.1v11.41l-1.33.2-.2-.2c0-.4-.13-1.67-.27-2.34-.53-4.27-2.87-6.14-5.47-6.94-1.13-.33-2.94-.53-5.34-.53h-7.01v18.22h5.74c3.4,0,6.07-1.2,6.54-4.61.13-.87.27-2,.27-2.54l.2-.2,1.4.2v15.95l-1.4.2-.2-.2c0-.6-.13-1.74-.27-2.6-.47-3.4-3.14-4.61-6.54-4.61h-5.74v18.82h6.01c1.4,0,4.6-.13,6.07-.53,3.4-.8,6.21-2.4,7.21-7.07.2-.8.47-2.87.53-3.67l.27-.2,1.27.13v12.95h-32.84l-.2-1.4Z" fill="#fff"/>
      </g>
      <g>
        <path d="M109.95,381.1v-1.18c0-4.34-1.18-5.31-4.7-5.31h-3.49c0,.69-.04,2.31-.04,3.45,0,2.03.04,4.1.08,5.76.04.57.2,1.83.93,1.91s2.35.16,2.96.16l.12.12-.12.85h-10.99l-.12-.85.12-.12c.49,0,1.62-.04,2.31-.12s.85-1.34.89-1.91c.12-3.16.12-6.41.12-9.65,0-2.51-.04-6.89-.12-9.73,0-.61-.2-1.87-.89-1.95s-1.78-.12-2.27-.12l-.12-.12.12-.85h10.02c6.12,0,8.8,2.19,8.8,6,0,3.45-3.04,5.64-6.45,6.41v.2c4.14.08,6.73,1.95,6.73,6.41v3.24c0,2.19.65,2.56,1.34,2.56.85,0,1.91-.45,1.91-3v-.41h.85v.41c0,2.6-.85,4.02-3.24,4.02-3.08,0-4.75-2.15-4.75-6.16ZM103.38,373.64c1.1,0,2.07-.08,2.56-.2,2.56-.69,3.81-2.88,3.81-5.92,0-2.64-.89-5.11-5.19-5.11h-2.84v11.23h1.66Z" fill="#fff"/>
        <path d="M126.66,374.17c0-7.14,3.65-13.14,11.4-13.14s11.44,6,11.44,13.14-3.65,13.1-11.44,13.1-11.4-5.96-11.4-13.1ZM145.48,374.17c0-7.67-2.19-12.13-7.42-12.13s-7.38,4.46-7.38,12.13,2.15,12.09,7.38,12.09,7.42-4.42,7.42-12.09Z" fill="#fff"/>
        <path d="M160.85,386.54v-7.75l.85-.12.12.12c.04.65.16,2.27.53,3.33.93,2.8,3.53,4.14,6.37,4.14,3.65,0,5.8-2.19,5.8-4.95,0-2.19-2.07-3.49-5.03-4.91-.77-.41-1.83-.85-2.6-1.22-3.57-1.54-6-3.45-6-7.3,0-3.45,2.8-6.85,8.03-6.85s7.34,2.31,7.34,4.5c0,1.26-.77,2.47-1.91,3.16l-.81-.41c.04-.37.04-.65.04-.97,0-2.76-1.1-5.27-4.7-5.27s-5.76,2.19-5.76,4.58,2.47,3.73,5.43,5.07c.65.32,1.66.77,2.39,1.14,3.57,1.66,5.8,3.61,5.8,7.3,0,3.12-2.23,7.14-8.4,7.14-2.96,0-5.88-.73-7.5-.73Z" fill="#fff"/>
        <path d="M187.82,386.01l.12-.12c.49,0,1.58-.04,2.27-.12s.85-1.34.89-1.91c.12-3.16.12-6.41.12-9.65,0-2.51-.04-6.89-.12-9.73,0-.61-.2-1.87-.89-1.95s-1.78-.12-2.27-.12l-.12-.12.12-.85h18.9v6.94l-.81.12-.12-.12c0-.24-.08-1.01-.16-1.42-.32-2.6-1.74-3.73-3.33-4.22-.69-.2-1.78-.32-3.24-.32h-4.26v11.07h3.49c2.07,0,3.69-.73,3.97-2.8.08-.53.16-1.22.16-1.54l.12-.12.85.12v9.69l-.85.12-.12-.12c0-.37-.08-1.05-.16-1.58-.28-2.07-1.91-2.8-3.97-2.8h-3.49v11.44h3.65c.85,0,2.8-.08,3.69-.32,2.07-.49,3.77-1.46,4.38-4.3.12-.49.28-1.74.32-2.23l.16-.12.77.08v7.87h-19.95l-.12-.85Z" fill="#fff"/>
      </g>
      <polygon points="81.63 380.37 86.1 373 81.63 368.53 77.16 373 81.63 380.37" fill="#fff"/>
      <polygon points="220.42 380.37 224.9 373 220.42 368.53 215.95 373 220.42 380.37" fill="#fff"/>
      <g>
        <g>
          <rect x="124.67" y="19.9" width="8.03" height="8.03" transform="translate(54.6 -83.99) rotate(45)" fill="#fff"/>
          <rect x="147.75" y="19.9" width="8.03" height="8.03" transform="translate(61.36 -100.31) rotate(45)" fill="#fff"/>
        </g>
        <g>
          <rect x="124.67" y="255.44" width="8.03" height="8.03" transform="translate(-145.77 166.98) rotate(-45)" fill="#fff"/>
          <rect x="147.75" y="255.44" width="8.03" height="8.03" transform="translate(-139.01 183.31) rotate(-45)" fill="#fff"/>
        </g>
      </g>
      <path d="M220.64,51.37c-.09.99-.6,1.57-1.61,1.58-1.02,0-1.74-.46-1.85-1.53-.09-.91.87-1.87,1.77-1.8,1.05.08,1.57.73,1.69,1.75Z" fill="#fff"/>
      <path d="M50.68,58.85c.99.09,1.57.6,1.58,1.62,0,1.02-.47,1.74-1.53,1.84-.91.09-1.87-.88-1.8-1.78.09-1.05.73-1.57,1.75-1.68Z" fill="#fff"/>
      <path d="M109.02,59.26c1.64.13,3.1.22,4.57.38,5.18.58,9.47,3.07,13.56,6.15,3.92,2.94,6.7,6.74,9.01,10.95.65,1.19,1.31,2.38,1.97,3.57.1.18.25.34.37.51.08-.02.17-.05.25-.07,0-1.22.04-2.45,0-3.67-.14-3.81-.34-7.62-.47-11.43-.05-1.27-.43-2.34-1.25-3.33-2.02-2.41-3.69-5.05-4.46-8.15-1.05-4.23-.38-8.28,1.76-12.01,1.66-2.89,3.57-5.64,5.41-8.42.59-.9,1.11-.86,1.65.09,1.58,2.75,3.16,5.49,4.65,8.29,1.15,2.15,1.47,4.52,1.3,6.94-.11,1.59-.13,3.2-.42,4.76-.65,3.5-2.67,6.24-5.29,8.53-1.21,1.06-1.69,2.19-1.55,3.81.23,2.63.16,5.29.35,7.93.15,2.16.48,4.31.74,6.46,0,.08.08.15.26.46.42-1.14.88-2.08,1.12-3.07,1.11-4.69,3.23-8.82,6.5-12.39,3.17-3.46,7.06-5.43,11.65-6.12,1.25-.19,2.5-.32,3.76-.46,1.29-.14,1.62.2,1.44,1.48-.47,3.27-1.56,6.32-3.36,9.11-1.78,2.75-4.25,4.8-6.71,6.89-2.25,1.91-4.86,2.97-7.72,3.47-1.47.26-2.97.39-4.46.54-.59.06-.84.34-.93.88-.14.87-.25,1.75-.45,2.6-.19.8-.66,1.42-1.47,1.73-.82.31-1.46.1-1.85-.7-.3-.62-.5-1.29-.77-1.92-.24-.57-.48-1.15-.79-1.68-.58-1-1.47-1.43-2.63-1.37-1.64.09-3.29.19-4.93.19-8.92.02-15.49-4.61-18.43-13-.8-2.29-1.49-4.62-2.22-6.94-.07-.24-.08-.5-.15-.99ZM128.17,75.39c-.88-1.23-1.94-1.5-3.1-1.38-1.99.21-3.97.46-5.96.72-.4.05-.78.22-1.16.33.29.28.57.59.89.83.67.5,1.34,1.07,2.25.9,2.31-.44,4.62-.91,7.08-1.4ZM125.4,73.54c-.53-.79-1.55-1.4-2.34-1.41-.57,0-1.14,0-1.71.04-1.71.09-3.42.2-5.13.28-.36.02-.57.14-.45.5.16.5,1.65,1.45,2.19,1.4,1.44-.12,2.89-.25,4.33-.4,1.03-.11,2.05-.27,3.11-.41ZM123.66,70.28c-.11-.64-.2-1.19-.29-1.75-.19-1.15-.36-2.31-.59-3.45-.26-1.31-1.35-2.08-2.49-1.83.16,1.01.46,2.02.46,3.03,0,2.02,1.09,3.15,2.91,4ZM130.43,76.34c-.87-.39-1.61-.79-2.49-.58-1.99.47-3.99.94-5.97,1.43-.16.04-.29.2-.58.42,1.36.35,2.43,1.09,3.7.71,1.66-.5,3.3-1.07,4.95-1.62.12-.04.2-.18.39-.36ZM128.79,69.04c.06,1.02.16,1.97.17,2.91.03,2.01.56,2.78,2.5,3.46.74-2.85-.36-5.55-2.67-6.37ZM123.18,64.58c.25,1.66.57,3.19.7,4.75.13,1.46,1,2.15,2.25,2.7-.14-1.32-.41-2.57-.38-3.81.04-1.87-.98-2.86-2.57-3.63ZM126.01,66.91c.01.15.01.28.03.42.14,1.27.33,2.54.42,3.82.09,1.29.87,2.22,2.23,2.47-.13-1.5-.2-3-.4-4.48-.17-1.29-.96-2-2.28-2.23ZM140.35,55.2c1.85-1.24,3.66-2.45,5.46-3.67.91-.62.98-1.52.86-2.59-.24.18-.4.3-.57.43-1.7,1.26-3.38,2.54-5.09,3.78-.89.65-.96.75-.66,2.05ZM145.79,43.81c-1.57,1.1-3.1,2.16-4.63,3.24-.18.13-.47.29-.48.46-.05.7-.02,1.4-.02,2.34,1.85-1.54,3.53-2.93,5.2-4.34.12-.1.19-.34.17-.5-.05-.44-.17-.87-.23-1.2ZM134.51,44.39c-.07.31-.2.71-.24,1.13-.02.25.03.6.19.75,1.48,1.41,3.08,2.66,5.09,3.4-.15-.74-.28-1.43-.44-2.12-.03-.14-.16-.29-.28-.37-1.43-.93-2.86-1.85-4.32-2.78ZM122.56,71.6c-.27-.29-.38-.48-.53-.55-.39-.18-.79-.4-1.2-.43-2.19-.18-4.38-.31-6.66-.47.24.52.36.95.62,1.27.21.27.59.6.88.59,2.23-.09,4.45-.26,6.9-.41ZM151.32,64.76c-1.01.35-1.56,1.21-1.56,2.53,0,1.38.03,2.76.05,4.14,0,.39,0,.78,0,1.23,1.12-.6,1.49-.94,1.5-1.59.03-2.09,0-4.18,0-6.31ZM152.79,71.3c.07.05.13.11.19.11,1.82.13,3.65.27,5.47.37.96.05,1.72-.61,2.04-1.72-.25,0-.48,0-.71,0-1.62,0-3.24.02-4.85-.03-1-.03-1.67.4-2.14,1.27ZM146.01,52.72c-1.84,1.15-3.57,2.28-5.36,3.32-.72.42-.87.9-.58,1.66,1.16-.48,2.27-1.04,3.44-1.4,1.78-.55,2.3-1.89,2.49-3.58ZM133.28,49.8c-.32,1-.23,1.7.34,2.07,1.07.7,2.15,1.4,3.25,2.06.62.37,1.29.66,1.93.99.47-.94.33-1.36-.39-1.82-1.72-1.09-3.43-2.21-5.13-3.31ZM133.56,46.79c-.41,1.16-.31,1.58.5,2.23.28.22.55.46.85.66,1.37.93,2.75,1.84,4.16,2.79.33-1.07.25-1.78-.26-2.02-1.95-.89-3.68-2.08-5.24-3.66ZM158.89,72.68c-.03-.09-.06-.19-.08-.28-.08-.04-.15-.12-.24-.12-1.94-.18-3.88-.4-5.83-.52-.82-.05-1.56.63-1.85,1.5,2.19,0,4.38.03,6.56-.03.48-.01.95-.36,1.43-.55ZM117.8,61.76c.18,1.36.31,2.66.55,3.94.23,1.21,1.22,1.74,2.24,2.35-.21-1.37-.45-2.6-.58-3.85-.17-1.63-.52-2.08-2.21-2.44ZM135.68,41.31c-.12.62-.16,1.08-.3,1.5-.18.55,0,.91.44,1.21.94.65,1.86,1.31,2.8,1.94.22.15.49.24.7.34.1-.09.15-.12.16-.16.03-.06.07-.14.06-.2-.06-.86-.03-1.67-.98-2.25-1-.61-1.83-1.49-2.89-2.38ZM139.93,59.82c2.8.21,4.44-.98,4.69-3.41-1.28.49-2.55.97-3.81,1.44-1.18.44-1.3.7-.88,1.96ZM120.1,69.82c-.95-1.54-3.97-2.19-6.87-1.53.35.94.88,1.58,2.02,1.55,1.59-.05,3.19-.01,4.86-.01ZM149.35,66.76c-.91.57-1.38,1.15-1.36,2.12.05,1.64,0,3.29.02,4.93,0,.18.12.36.19.53.16-.12.34-.21.48-.35.68-.66.69-1.51.67-2.38-.02-1.56,0-3.13,0-4.85ZM152.05,70.71c.07.03.15.06.22.09.3-.51.84-1,.86-1.53.1-2.03.04-4.07.04-6.13-.75.44-1.26.96-1.23,1.91.05,1.71,0,3.43.01,5.15,0,.17.06.35.09.52ZM149.3,74.07c0,.12.02.25.02.37.21.06.41.15.62.17,1.77.17,3.54.33,5.32.47.93.08,1.72-.43,2.03-1.27-.24-.04-.46-.1-.69-.11-1.71-.06-3.43-.16-5.14-.12-.72.01-1.43.32-2.15.49ZM140.51,52.27c.21-.12.38-.19.52-.3,1.65-1.25,3.3-2.49,4.93-3.76.79-.62.78-.7.23-1.58-1.74,1.36-3.46,2.74-5.23,4.05-.6.45-.63.91-.45,1.59ZM111.76,65.66c.51.65.85,1.52,1.38,1.67,1.42.38,2.92.45,4.49.66-1.14-2.03-2.93-2.75-5.87-2.32ZM161.51,68.67c-1.65-.14-3.3-.29-4.96-.4-.88-.06-1.67.55-2.06,1.57,1.96,0,3.88.02,5.8-.01.81-.01,1.1-.35,1.22-1.16ZM153.87,68.94c.08.04.15.08.23.12.37-.56,1-1.08,1.06-1.67.17-1.58.1-3.19.1-4.78,0-.13-.2-.26-.31-.39-.36.31-1.01.61-1.03.95-.1,1.92-.05,3.85-.05,5.77ZM125.79,78.45c2.58.97,5.47.69,7.02-.68-.66-.27-1.31-.8-1.85-.7-1.69.32-3.34.87-5.17,1.38ZM147.91,75.99c1.65.23,3.21.39,4.75.69,1.17.23,1.93-.26,2.75-1.11-.79-.06-1.47-.11-2.15-.17-1.3-.12-2.6-.26-3.9-.37-.66-.06-1.12.25-1.44.96ZM156.9,61.2c-.53.49-1.19.8-1.23,1.17-.13,1.52-.08,3.05-.08,4.57,0,.1.13.26.23.29.1.03.31-.04.35-.12.34-.69.81-1.37.93-2.11.16-.95.06-1.95.04-2.93,0-.21-.12-.43-.25-.89ZM144.73,41.25c-.85.76-1.58,1.63-2.49,2.18-1.03.62-1.35,1.48-1.46,2.66,1.53-.89,2.96-1.8,4.09-3.09.6-.68.53-1.05-.14-1.75ZM146.51,75.66c.12.04.25.09.37.13.27-.41.74-.81.77-1.24.1-1.73.05-3.47.06-5.21,0-.4-.27-.48-.49-.24-.32.37-.76.82-.77,1.24-.06,1.77.03,3.54.06,5.31ZM162.61,66.76c-1.19-.06-2.37-.16-3.56-.16-.93,0-1.71.39-2.31,1.25.77.06,1.46.1,2.14.16.71.06,1.42.12,2.13.18,1.05.09,1.49-.31,1.59-1.43ZM117.94,65.77c-.17-1.22-.31-2.33-.5-3.43-.18-1.03-.81-1.34-1.87-.96.07,1.8.25,3.54,2.37,4.38ZM146.2,77.33c1.07.21,2.08.31,3.01.62,1.29.43,2.36.04,3.45-.57-.07-.04-.12-.1-.19-.11-1.53-.31-3.07-.63-4.61-.91-.71-.13-1.22.23-1.66.97ZM138.76,59.26c.1-.57-.04-1.12-.4-1.32-1.34-.74-2.7-1.46-4.06-2.2.08,1.79,2.07,3.34,4.46,3.52ZM138.82,57.13c.18-.93.07-1.07-.53-1.41-1.24-.69-2.46-1.42-3.68-2.14-.37-.22-.74-.46-1.11-.69-.06.04-.12.09-.18.13.14.41.16,1.01.44,1.19,1.62,1.01,3.31,1.92,5.06,2.91ZM141.12,43.23c.95-.89,1.81-1.65,2.6-2.48.7-.74.64-1.03-.17-1.77-.63.67-1.23,1.38-1.91,2.01-.62.57-.73,1.22-.52,2.24ZM158.5,66.31c1.37,0,2.69.03,4.01-.01.65-.02.87-.46.8-1.06-2.22-.7-4.08-.3-4.81,1.07ZM157.6,65.51c1.43-.9,1.83-2.57,1.14-4.87-.42.38-1.05.69-1.09,1.06-.13,1.23-.05,2.49-.05,3.82ZM137.02,39.46c-.74.79-.71,1.15.11,1.8.43.34.84.7,1.26,1.05.39.32.79.64,1.19.95.08-.05.17-.1.25-.16-.23-.62-.31-1.36-.71-1.84-.58-.7-1.39-1.21-2.1-1.81ZM133.33,76.61c.68-1.61.17-3.36-1.13-3.95-.57,2.31-.31,3.25,1.13,3.95ZM145.15,77.21c1.6-1.75.57-3.59.57-5.33-1.38,1.59-.83,3.4-.57,5.33ZM159.47,64.01c1.24-.67,1.67-1.55,1.39-2.86-.06-.28-.03-.8-.53-.65-.33.1-.79.43-.82.69-.1.91-.04,1.83-.04,2.81ZM142.63,37.25c-1.6,1.61-1.87,2.24-1.4,3.28.52-.49,1.04-.97,1.55-1.47.69-.68.65-1.17-.15-1.81ZM111.49,63.59c.21,1.52,1.46,2.04,3.04,1.3-1.07-1.43-1.8-1.75-3.04-1.3ZM140.09,40.78c-.15-1.56-.82-2.7-1.85-3.26-.49.51-.61,1.09-.2,1.48.63.6,1.31,1.14,2.05,1.78ZM163.66,63.67c-1.53-.21-3.13-.1-3.23.83,1.84.57,2.98.27,3.23-.83ZM113.92,60.93c-.3,1.21.23,2.26,1.33,2.56-.03-.58-.03-1.14-.09-1.71-.09-.85-.35-1.01-1.24-.85ZM144.96,78.35c1.51.22,2.89,1.01,4.47.12-1.08-.22-2.08-.4-3.06-.64-.55-.13-.97-.02-1.41.52ZM136.32,59.55c.33,1.17,1.26,1.66,1.96,2.32,0,0,.32-.22.32-.34-.03-1.05-.19-1.24-1.19-1.59-.31-.11-.62-.23-1.09-.4ZM141.94,60.5c-.03-.1-.07-.19-.1-.29-.68.08-1.41.03-2,.31-.22.11-.09.96-.14,1.65.87-.65,1.55-1.17,2.23-1.68ZM140.11,37.81c0-.93.02-1.74-.02-2.54,0-.1-.29-.19-.45-.29-.67,1.63-.61,2.04.47,2.83ZM140.97,37.52c1.34-1.16,1.31-2.06-.04-2.66,0,.69,0,1.35,0,2.01,0,.19.02.37.04.66ZM134.26,75c-.58,1.94-.35,2.49,1.01,2.7-.32-.86-.64-1.69-1.01-2.7ZM161.29,62.55c.9-.6,1.06-1.17.74-2.37-1.13.49-.62,1.47-.74,2.37ZM144.27,78.01c.61-1.06.2-1.92.07-2.9-.79.98-.34,1.84-.07,2.9ZM162.36,62.98c1.06.32,1.47.2,1.77-.5-.97-.39-1.34-.29-1.77.5ZM111.73,60.63c.57.5,1.04.91,1.54,1.35.19-1.32-.01-1.5-1.54-1.35ZM162.69,61.5c.54-.58.92-.99,1.3-1.41-.04-.07-.07-.13-.11-.2-.4.09-.91.05-1.15.3-.19.2-.04.72-.04,1.31Z" fill="#fff"/>
      <path d="M219.24,109.07c-.08,1.64-.12,3.11-.24,4.58-.42,5.2-2.78,9.56-5.73,13.74-2.82,4-6.53,6.9-10.68,9.34-1.17.69-2.34,1.38-3.51,2.07-.18.11-.33.26-.5.39.03.08.05.17.08.25,1.22-.04,2.45-.04,3.67-.12,3.8-.26,7.61-.57,11.41-.82,1.27-.08,2.33-.5,3.29-1.35,2.35-2.09,4.93-3.84,8.01-4.71,4.2-1.18,8.26-.63,12.06,1.39,2.94,1.57,5.74,3.4,8.58,5.15.91.56.9,1.08-.04,1.66-2.7,1.66-5.39,3.33-8.14,4.9-2.12,1.21-4.47,1.6-6.89,1.52-1.59-.06-3.21-.04-4.77-.28-3.52-.54-6.32-2.48-8.69-5.03-1.1-1.18-2.24-1.62-3.86-1.43-2.62.31-5.28.32-7.91.59-2.15.22-4.29.61-6.43.93-.08.01-.15.09-.45.27,1.16.39,2.11.82,3.1,1.02,4.72.97,8.91,2.96,12.58,6.12,3.55,3.06,5.64,6.9,6.47,11.46.23,1.24.4,2.49.57,3.74.18,1.28-.15,1.63-1.43,1.48-3.29-.37-6.36-1.36-9.21-3.08-2.81-1.69-4.93-4.1-7.09-6.5-1.98-2.19-3.11-4.77-3.7-7.61-.31-1.46-.49-2.96-.67-4.44-.07-.59-.36-.83-.91-.9-.87-.11-1.75-.19-2.61-.37-.8-.17-1.44-.62-1.77-1.42-.34-.81-.15-1.46.64-1.87.61-.32,1.27-.54,1.9-.83.56-.26,1.13-.51,1.65-.84.98-.61,1.39-1.51,1.28-2.67-.14-1.64-.29-3.28-.34-4.92-.29-8.92,4.14-15.62,12.44-18.81,2.27-.87,4.58-1.63,6.87-2.43.23-.08.49-.09.98-.18ZM203.7,128.7c1.21-.92,1.45-1.98,1.29-3.14-.27-1.98-.58-3.96-.91-5.93-.06-.39-.24-.77-.37-1.15-.27.3-.57.58-.8.91-.47.68-1.03,1.37-.83,2.28.51,2.3,1.05,4.59,1.62,7.04ZM205.47,125.88c.77-.55,1.35-1.59,1.34-2.38,0-.57-.04-1.14-.09-1.71-.14-1.71-.3-3.41-.43-5.11-.03-.36-.16-.57-.52-.44-.49.17-1.4,1.69-1.34,2.23.16,1.44.34,2.88.54,4.31.14,1.02.33,2.04.5,3.1ZM208.67,124.04c.63-.13,1.19-.24,1.74-.35,1.14-.23,2.29-.43,3.43-.69,1.3-.3,2.04-1.41,1.75-2.54-1,.19-2.01.52-3.01.55-2.02.06-3.12,1.19-3.91,3.03ZM202.82,131c.36-.89.74-1.64.51-2.5-.53-1.98-1.06-3.96-1.61-5.93-.04-.16-.21-.28-.44-.57-.31,1.37-1.01,2.46-.59,3.72.55,1.65,1.17,3.27,1.77,4.9.04.12.18.19.37.38ZM210.07,129.13c-1.02.09-1.96.22-2.91.26-2.01.09-2.76.64-3.38,2.61,2.87.66,5.54-.53,6.29-2.87ZM214.35,123.39c-1.65.3-3.18.66-4.72.85-1.45.17-2.12,1.07-2.63,2.33,1.31-.18,2.55-.49,3.8-.5,1.87-.02,2.83-1.07,3.55-2.68ZM212.11,126.29c-.15.01-.28.02-.41.04-1.27.18-2.53.4-3.81.53-1.29.13-2.19.94-2.4,2.31,1.5-.18,2.99-.29,4.46-.54,1.28-.21,1.97-1.02,2.16-2.34ZM224.25,140.26c1.3,1.81,2.56,3.58,3.83,5.35.64.89,1.55.93,2.62.78-.19-.23-.32-.39-.44-.55-1.31-1.66-2.64-3.3-3.93-4.97-.68-.87-.78-.94-2.07-.6ZM235.8,145.35c-1.14-1.53-2.26-3.03-3.38-4.53-.14-.18-.31-.46-.47-.47-.7-.03-1.4.02-2.34.05,1.59,1.8,3.04,3.44,4.5,5.06.1.11.35.18.51.15.44-.07.87-.19,1.19-.27ZM234.88,134.1c-.31-.06-.72-.18-1.13-.2-.25-.01-.6.05-.75.21-1.37,1.52-2.56,3.16-3.25,5.19.73-.17,1.42-.32,2.11-.5.14-.04.29-.17.36-.29.89-1.45,1.76-2.91,2.65-4.4ZM207.32,122.98c.28-.28.47-.39.53-.55.17-.39.38-.8.4-1.21.12-2.19.18-4.38.26-6.67-.51.26-.94.39-1.25.66-.26.22-.58.61-.56.9.16,2.22.39,4.44.62,6.88ZM215.03,151.52c-.38-1-1.26-1.52-2.58-1.48-1.38.04-2.76.12-4.13.17-.39.02-.78.02-1.22.04.63,1.11.98,1.46,1.63,1.45,2.09-.04,4.17-.12,6.3-.18ZM208.54,153.18c-.04.08-.1.13-.11.19-.07,1.83-.16,3.65-.2,5.48-.02.96.66,1.71,1.78,1.99,0-.25-.02-.48-.02-.71-.04-1.62-.12-3.24-.12-4.85,0-1-.45-1.66-1.33-2.1ZM226.9,145.85c-1.21-1.8-2.39-3.5-3.48-5.25-.44-.71-.92-.84-1.68-.52.51,1.14,1.1,2.24,1.5,3.4.61,1.77,1.96,2.24,3.66,2.38ZM229.43,133.04c-1.01-.29-1.7-.18-2.06.41-.67,1.09-1.34,2.19-1.96,3.31-.35.63-.63,1.31-.93,1.96.95.44,1.37.29,1.81-.45,1.04-1.75,2.1-3.49,3.15-5.22ZM232.45,133.23c-1.18-.38-1.59-.26-2.21.56-.22.29-.44.56-.63.87-.89,1.4-1.76,2.81-2.66,4.25,1.08.3,1.79.2,2.01-.32.83-1.97,1.97-3.74,3.49-5.35ZM207.34,159.32c.09-.03.19-.06.28-.09.04-.08.11-.16.12-.24.13-1.95.28-3.89.35-5.84.03-.82-.67-1.54-1.56-1.8.07,2.19.1,4.38.23,6.56.03.48.38.94.59,1.41ZM217.01,117.92c-1.36.23-2.65.39-3.92.67-1.2.26-1.7,1.28-2.28,2.31,1.36-.25,2.59-.53,3.83-.7,1.63-.22,2.06-.58,2.37-2.28ZM237.99,135.18c-.63-.1-1.08-.13-1.51-.25-.55-.16-.91.03-1.19.48-.62.95-1.25,1.9-1.86,2.86-.14.23-.23.5-.32.71.1.1.13.14.17.16.06.03.14.06.2.05.86-.09,1.67-.08,2.22-1.05.58-1.02,1.43-1.88,2.29-2.96ZM219.63,139.99c-.13,2.81,1.12,4.41,3.55,4.59-.52-1.27-1.04-2.52-1.56-3.77-.48-1.17-.74-1.28-1.99-.82ZM209.02,120.47c1.51-1,2.07-4.03,1.32-6.92-.93.38-1.56.92-1.49,2.07.1,1.59.11,3.19.16,4.85ZM212.97,149.61c-.6-.9-1.19-1.35-2.16-1.29-1.64.1-3.29.11-4.93.17-.18,0-.35.13-.53.21.12.16.22.33.36.47.68.66,1.53.64,2.4.6,1.56-.07,3.13-.1,4.85-.15ZM209.1,152.43c-.03.07-.05.15-.08.22.52.29,1.03.81,1.55.82,2.03.04,4.07-.08,6.13-.15-.46-.74-.99-1.23-1.95-1.17-1.71.1-3.43.11-5.14.17-.17,0-.34.07-.52.11ZM205.66,149.79c-.12.01-.25.02-.37.04-.05.21-.14.41-.15.63-.11,1.78-.22,3.55-.31,5.33-.05.93.48,1.71,1.34,1.99.03-.24.09-.47.09-.7,0-1.71.05-3.43-.03-5.14-.04-.72-.36-1.42-.56-2.14ZM227.19,140.34c.12.2.2.37.31.51,1.3,1.61,2.59,3.22,3.91,4.81.65.77.72.75,1.59.18-1.41-1.7-2.85-3.37-4.21-5.1-.47-.59-.93-.6-1.6-.4ZM212.92,112.01c-.64.53-1.5.89-1.62,1.43-.34,1.43-.36,2.93-.52,4.51,2-1.2,2.66-3.01,2.15-5.94ZM211.43,161.82c.08-1.66.19-3.31.25-4.97.03-.88-.6-1.65-1.63-2.01.06,1.96.1,3.88.19,5.8.04.81.39,1.09,1.2,1.18ZM210.93,154.19c-.04.08-.08.16-.11.23.57.35,1.11.96,1.7,1.01,1.58.12,3.19,0,4.78-.04.13,0,.25-.21.38-.32-.33-.35-.64-.99-.98-1-1.92-.04-3.85.07-5.77.13ZM200.57,126.42c-.89,2.61-.53,5.49.89,7,.25-.67.76-1.34.64-1.87-.37-1.68-.97-3.31-1.53-5.13ZM203.7,148.45c-.18,1.66-.29,3.22-.55,4.77-.2,1.18.32,1.93,1.2,2.71.04-.79.07-1.47.11-2.15.08-1.3.18-2.61.25-3.91.04-.66-.28-1.12-1.01-1.41ZM218.76,156.99c-.5-.52-.84-1.17-1.21-1.19-1.52-.09-3.05.01-4.57.06-.1,0-.26.14-.29.24-.03.1.05.31.13.34.7.32,1.4.77,2.13.87.95.13,1.95,0,2.93-.05.21-.01.42-.13.88-.28ZM238.33,144.21c-.79-.83-1.67-1.53-2.26-2.43-.66-1.01-1.52-1.31-2.71-1.38.94,1.5,1.89,2.9,3.21,4,.7.58,1.06.5,1.75-.19ZM203.99,147.04c-.04.13-.08.25-.12.38.42.26.84.72,1.26.73,1.74.04,3.47-.05,5.21-.1.4-.01.47-.29.22-.5-.38-.31-.84-.73-1.27-.73-1.77,0-3.54.14-5.31.23ZM213.37,162.87c.02-1.19.08-2.37.05-3.56-.03-.93-.44-1.7-1.32-2.27-.03.77-.06,1.46-.09,2.14-.03.71-.08,1.43-.11,2.14-.05,1.05.36,1.48,1.47,1.54ZM213.01,118.18c1.22-.21,2.32-.38,3.41-.6,1.03-.21,1.31-.85.9-1.9-1.8.13-3.53.36-4.31,2.5ZM202.31,146.79c-.18,1.08-.24,2.08-.53,3.03-.39,1.3.03,2.36.67,3.43.04-.07.09-.13.1-.19.26-1.54.54-3.08.77-4.63.11-.72-.27-1.21-1.02-1.63ZM220.14,138.8c.58.08,1.12-.07,1.31-.44.7-1.36,1.38-2.74,2.08-4.13-1.79.14-3.28,2.17-3.39,4.56ZM222.28,138.79c.94.15,1.07.04,1.39-.58.65-1.26,1.34-2.5,2.02-3.75.21-.38.44-.75.66-1.13-.05-.06-.09-.12-.14-.17-.4.15-1.01.19-1.18.48-.96,1.65-1.82,3.37-2.76,5.15ZM236.24,140.67c.92.92,1.7,1.76,2.55,2.52.76.68,1.05.61,1.76-.23-.69-.61-1.42-1.19-2.06-1.85-.59-.6-1.24-.69-2.25-.45ZM213.7,158.74c.04,1.36.05,2.69.13,4.01.04.65.49.85,1.09.77.63-2.24.17-4.09-1.22-4.78ZM214.47,157.82c.94,1.41,2.62,1.75,4.91.99-.4-.4-.72-1.03-1.09-1.06-1.24-.09-2.49.03-3.82.07ZM239.89,136.46c-.82-.71-1.18-.68-1.8.17-.32.44-.68.86-1.01,1.29-.31.4-.61.81-.92,1.22.05.08.11.16.16.25.62-.24,1.35-.35,1.82-.77.68-.6,1.17-1.43,1.74-2.16ZM202.64,133.9c1.63.63,3.36.06,3.91-1.25-2.33-.5-3.26-.21-3.91,1.25ZM202.4,145.73c1.8,1.55,3.6.46,5.34.41-1.64-1.33-3.42-.73-5.34-.41ZM216.03,159.64c.7,1.22,1.6,1.62,2.9,1.3.28-.07.8-.06.63-.54-.11-.32-.45-.78-.72-.8-.91-.08-1.83.02-2.81.05ZM242.26,142c-1.66-1.55-2.29-1.8-3.32-1.3.51.5,1,1.01,1.52,1.5.7.67,1.19.61,1.8-.2ZM214.98,111.68c-1.52.26-2,1.52-1.21,3.08,1.4-1.11,1.7-1.85,1.21-3.08ZM238.65,139.56c1.56-.19,2.67-.9,3.2-1.95-.53-.48-1.11-.57-1.48-.16-.58.64-1.1,1.34-1.72,2.11ZM216.49,163.82c.16-1.54,0-3.13-.93-3.2-.51,1.86-.18,2.99.93,3.2ZM217.72,114.02c-1.22-.27-2.25.3-2.52,1.41.57-.05,1.14-.07,1.71-.14.84-.11,1-.38.81-1.26ZM201.25,145.57c-.17,1.52-.92,2.92.01,4.47.19-1.08.34-2.09.55-3.08.12-.56,0-.97-.56-1.39ZM219.78,136.36c-1.16.37-1.62,1.31-2.26,2.03,0,0,.23.31.34.31,1.04-.06,1.23-.22,1.55-1.24.1-.32.21-.63.36-1.1ZM219,142.02c.09-.04.19-.07.28-.11-.1-.67-.08-1.41-.37-1.99-.11-.22-.96-.07-1.66-.09.68.85,1.21,1.51,1.75,2.18ZM241.63,139.5c.93-.03,1.73-.04,2.54-.1.1,0,.18-.29.27-.46-1.65-.62-2.06-.55-2.81.55ZM241.94,140.35c1.2,1.3,2.1,1.25,2.66-.12-.69.02-1.35.04-2.01.06-.18,0-.37.03-.65.06ZM204.28,134.78c-1.96-.52-2.5-.28-2.67,1.1.85-.35,1.67-.69,2.67-1.1ZM217.55,161.42c.63.88,1.2,1.02,2.39.67-.53-1.12-1.49-.58-2.39-.67ZM201.57,144.87c1.08.58,1.92.15,2.9-.02-1-.76-1.85-.29-2.9.02ZM217.15,162.5c-.29,1.07-.15,1.48.55,1.76.36-.98.25-1.35-.55-1.76ZM217.96,111.82c-.49.59-.88,1.06-1.3,1.58,1.33.15,1.5-.06,1.3-1.58ZM218.63,162.79c.6.52,1.02.89,1.45,1.25.07-.04.13-.08.2-.12-.1-.39-.08-.91-.33-1.14-.2-.18-.72-.02-1.31,0Z" fill="#fff"/>
      <path d="M172.81,220.75c-1.64-.03-3.11-.03-4.58-.1-5.21-.26-9.64-2.49-13.91-5.31-4.09-2.7-7.09-6.32-9.66-10.39-.72-1.15-1.45-2.3-2.18-3.44-.11-.18-.27-.33-.4-.49-.08.03-.17.06-.25.08.07,1.22.11,2.45.23,3.66.38,3.8.8,7.59,1.17,11.38.12,1.26.57,2.31,1.45,3.25,2.16,2.29,3.99,4.81,4.95,7.86,1.3,4.16.88,8.24-1.02,12.1-1.48,2.99-3.22,5.84-4.89,8.73-.54.93-1.05.93-1.66.01-1.74-2.65-3.49-5.29-5.15-7.99-1.28-2.08-1.74-4.42-1.72-6.85,0-1.59-.06-3.21.13-4.78.43-3.54,2.28-6.39,4.76-8.84,1.14-1.13,1.55-2.29,1.31-3.9-.39-2.61-.49-5.27-.83-7.89-.28-2.15-.74-4.27-1.13-6.4-.01-.08-.09-.14-.28-.44-.35,1.17-.75,2.13-.93,3.13-.83,4.75-2.68,9-5.73,12.76-2.95,3.64-6.72,5.85-11.26,6.82-1.23.26-2.48.48-3.73.69-1.28.21-1.63-.1-1.53-1.39.27-3.3,1.17-6.4,2.8-9.3,1.61-2.86,3.95-5.05,6.28-7.28,2.13-2.04,4.67-3.26,7.49-3.93,1.46-.35,2.94-.57,4.42-.81.59-.09.82-.39.87-.94.08-.88.14-1.76.29-2.62.14-.81.58-1.46,1.36-1.81.8-.36,1.46-.19,1.88.58.33.6.58,1.25.89,1.87.28.55.55,1.11.89,1.63.64.96,1.55,1.34,2.71,1.2,1.63-.19,3.27-.39,4.91-.49,8.9-.56,15.74,3.66,19.18,11.86.94,2.24,1.77,4.52,2.64,6.79.09.23.11.49.21.98ZM152.71,205.82c.96,1.18,2.02,1.38,3.18,1.19,1.97-.33,3.94-.7,5.9-1.09.39-.08.76-.27,1.14-.4-.31-.26-.6-.55-.94-.77-.7-.45-1.4-.99-2.3-.76-2.28.58-4.55,1.19-6.98,1.83ZM155.59,207.5c.57.75,1.64,1.3,2.42,1.27.57-.03,1.14-.08,1.7-.14,1.7-.19,3.4-.4,5.1-.59.36-.04.56-.17.42-.53-.19-.49-1.73-1.35-2.27-1.27-1.43.21-2.87.42-4.3.67-1.02.17-2.03.39-3.08.6ZM157.52,210.65c.14.63.27,1.18.4,1.73.26,1.14.5,2.28.8,3.41.34,1.29,1.48,1.99,2.59,1.67-.22-1-.58-1.99-.64-3-.12-2.01-1.28-3.08-3.15-3.81ZM150.39,205.01c.9.34,1.66.69,2.52.43,1.96-.59,3.92-1.18,5.88-1.79.16-.05.27-.22.55-.46-1.37-.27-2.49-.94-3.73-.48-1.63.6-3.23,1.27-4.84,1.92-.11.05-.19.19-.37.38ZM152.48,212.2c-.12-1.01-.28-1.95-.35-2.9-.15-2.01-.73-2.74-2.71-3.3-.57,2.89.7,5.52,3.06,6.2ZM158.35,216.31c-.35-1.64-.76-3.15-.99-4.7-.22-1.45-1.13-2.08-2.41-2.55.22,1.31.56,2.54.61,3.78.07,1.87,1.15,2.8,2.79,3.47ZM155.38,214.15c-.02-.14-.03-.28-.05-.41-.22-1.26-.48-2.52-.65-3.79-.17-1.28-1-2.16-2.38-2.33.22,1.49.39,2.98.67,4.44.25,1.28,1.08,1.93,2.41,2.09ZM141.78,226.71c-1.77,1.35-3.5,2.67-5.23,3.99-.87.67-.89,1.58-.7,2.64.23-.19.38-.33.54-.46,1.62-1.36,3.22-2.74,4.85-4.08.85-.7.92-.81.53-2.09ZM137.04,238.41c1.5-1.19,2.96-2.35,4.42-3.52.18-.14.45-.32.45-.48.01-.7-.06-1.4-.12-2.34-1.75,1.65-3.35,3.14-4.92,4.65-.11.11-.17.35-.14.51.08.44.22.86.31,1.18ZM148.26,237.15c.05-.31.16-.72.17-1.14,0-.25-.06-.6-.24-.74-1.56-1.32-3.23-2.47-5.28-3.09.19.73.36,1.41.56,2.09.04.14.18.28.3.35,1.48.84,2.97,1.67,4.48,2.52ZM158.54,209.26c.29.28.4.46.56.52.4.15.81.35,1.22.36,2.19.05,4.39.05,6.68.06-.27-.5-.42-.92-.69-1.23-.23-.26-.62-.57-.91-.54-2.22.22-4.42.53-6.86.83ZM130.25,217.84c.99-.41,1.48-1.3,1.4-2.62-.08-1.38-.2-2.75-.3-4.13-.03-.39-.05-.78-.08-1.22-1.09.67-1.43,1.03-1.4,1.67.1,2.09.24,4.17.37,6.29ZM128.39,211.4c-.08-.04-.14-.1-.19-.1-1.83-.02-3.66-.05-5.49-.04-.96,0-1.68.71-1.93,1.84.25-.02.48-.03.7-.04,1.62-.09,3.23-.21,4.85-.27,1-.03,1.64-.5,2.06-1.39ZM136.28,229.53c1.77-1.26,3.43-2.5,5.14-3.64.7-.46.81-.95.47-1.69-1.13.55-2.2,1.17-3.35,1.6-1.75.66-2.18,2.03-2.27,3.73ZM149.16,231.67c.26-1.02.13-1.71-.47-2.05-1.11-.64-2.23-1.27-3.37-1.86-.64-.33-1.33-.59-1.99-.87-.41.96-.25,1.38.5,1.79,1.79.98,3.56,2,5.32,2.99ZM149.06,234.7c.34-1.19.21-1.6-.63-2.19-.29-.21-.58-.43-.88-.61-1.43-.84-2.86-1.67-4.33-2.53-.26,1.09-.14,1.8.38,2,2,.77,3.8,1.85,5.46,3.33ZM122.22,210.39c.03.09.07.18.1.28.08.04.16.11.24.11,1.95.07,3.9.16,5.85.17.82,0,1.52-.72,1.75-1.61-2.19.13-4.37.23-6.55.42-.48.04-.93.41-1.4.63ZM163.89,218.8c-.27-1.35-.47-2.64-.79-3.9-.3-1.19-1.33-1.66-2.38-2.21.29,1.35.61,2.57.81,3.8.27,1.62.65,2.04,2.35,2.3ZM147.28,240.29c.08-.63.09-1.08.21-1.51.15-.56-.06-.91-.51-1.18-.97-.59-1.94-1.19-2.92-1.77-.23-.14-.5-.21-.72-.3-.09.1-.14.13-.15.17-.03.06-.06.14-.05.2.12.85.13,1.67,1.11,2.19,1.03.55,1.92,1.38,3.03,2.2ZM141.91,222.08c-2.81-.04-4.37,1.25-4.48,3.69,1.25-.56,2.48-1.12,3.72-1.67,1.15-.52,1.25-.77.76-2.01ZM161.1,210.89c1.04,1.48,4.1,1.95,6.96,1.11-.41-.91-.97-1.53-2.11-1.42-1.59.15-3.18.21-4.85.31ZM132.09,215.73c.88-.62,1.31-1.23,1.22-2.2-.15-1.64-.21-3.28-.32-4.92-.01-.18-.14-.35-.22-.52-.15.13-.32.23-.45.38-.64.7-.59,1.55-.53,2.42.12,1.56.2,3.12.3,4.84ZM129.15,211.94c-.07-.02-.15-.05-.22-.07-.27.53-.77,1.05-.77,1.58.02,2.03.21,4.06.33,6.13.72-.48,1.2-1.03,1.11-1.98-.15-1.71-.22-3.42-.33-5.13-.01-.17-.08-.34-.12-.51ZM131.7,208.42c-.02-.12-.03-.25-.05-.37-.21-.05-.42-.13-.63-.13-1.78-.06-3.56-.11-5.33-.15-.93-.02-1.69.53-1.94,1.4.24.02.47.07.7.06,1.71-.05,3.43-.05,5.14-.19.72-.06,1.41-.41,2.12-.62ZM141.8,229.65c-.2.13-.37.21-.5.33-1.57,1.35-3.14,2.68-4.69,4.06-.75.67-.73.74-.13,1.59,1.65-1.46,3.28-2.95,4.97-4.37.58-.48.57-.95.35-1.61ZM169.68,214.53c-.55-.62-.94-1.47-1.48-1.58-1.44-.29-2.94-.27-4.52-.38,1.26,1.96,3.09,2.56,6,1.96ZM119.84,214.55c1.66.03,3.31.09,4.97.09.88,0,1.63-.65,1.96-1.69-1.96.12-3.88.21-5.79.36-.81.06-1.08.42-1.14,1.24ZM127.45,213.83c-.08-.04-.16-.07-.24-.11-.33.58-.93,1.14-.95,1.73-.07,1.59.09,3.19.19,4.78,0,.13.22.25.33.37.34-.34.97-.67.97-1.01-.02-1.92-.19-3.84-.3-5.76ZM154.9,202.62c-2.63-.81-5.5-.36-6.97,1.11.68.23,1.36.71,1.89.58,1.67-.42,3.28-1.07,5.08-1.69ZM132.97,206.42c-1.66-.13-3.23-.19-4.78-.4-1.18-.16-1.92.38-2.68,1.28.79.02,1.47.02,2.16.04,1.31.04,2.61.1,3.92.13.66.02,1.11-.32,1.38-1.05ZM124.9,221.73c.5-.52,1.14-.87,1.15-1.25.04-1.52-.11-3.05-.2-4.57,0-.1-.15-.25-.25-.28-.1-.02-.3.06-.34.14-.3.71-.72,1.42-.8,2.16-.1.96.06,1.95.14,2.92.02.21.14.42.3.87ZM138.26,240.91c.8-.81,1.48-1.72,2.36-2.33.99-.69,1.26-1.56,1.3-2.75-1.47.98-2.84,1.98-3.9,3.34-.56.72-.47,1.08.25,1.74ZM134.39,206.67c-.13-.04-.25-.07-.38-.11-.24.43-.69.86-.69,1.29.01,1.74.16,3.47.26,5.21.02.4.3.46.5.21.3-.39.71-.86.7-1.29-.05-1.77-.25-3.53-.39-5.3ZM118.85,216.53c1.19-.01,2.38.01,3.56-.06.93-.05,1.69-.49,2.23-1.39-.77,0-1.46-.01-2.15-.03-.71-.01-1.43-.03-2.14-.05-1.05-.02-1.47.4-1.5,1.52ZM163.51,214.81c.25,1.21.45,2.31.7,3.39.24,1.02.89,1.29,1.93.84-.18-1.79-.47-3.52-2.63-4.23ZM134.59,204.98c-1.08-.15-2.09-.18-3.04-.44-1.31-.36-2.35.1-3.41.78.07.04.13.09.19.1,1.55.22,3.1.44,4.65.63.72.09,1.2-.31,1.6-1.07ZM143.12,222.56c-.06.58.1,1.12.48,1.29,1.38.66,2.78,1.3,4.19,1.95-.19-1.79-2.27-3.21-4.67-3.25ZM143.19,224.7c-.12.94,0,1.07.62,1.37,1.28.61,2.54,1.27,3.81,1.91.39.2.76.41,1.15.62.06-.05.11-.1.17-.14-.16-.4-.22-1-.51-1.16-1.68-.91-3.42-1.72-5.23-2.6ZM141.74,238.71c-.89.95-1.71,1.75-2.45,2.63-.65.78-.57,1.07.28,1.75.59-.71,1.15-1.45,1.78-2.12.58-.61.65-1.26.38-2.26ZM122.99,216.73c-1.36.08-2.69.14-4,.26-.65.06-.84.52-.74,1.11,2.26.56,4.09.05,4.74-1.36ZM123.94,217.48c-1.38.98-1.67,2.67-.84,4.93.39-.41,1.01-.75,1.02-1.12.06-1.24-.1-2.49-.18-3.81ZM146.06,242.23c.69-.84.64-1.2-.22-1.79-.45-.31-.88-.65-1.32-.97-.41-.3-.83-.59-1.24-.88-.08.06-.16.11-.24.17.26.61.39,1.34.82,1.79.62.66,1.46,1.13,2.21,1.68ZM147.48,204.92c-.58,1.65.04,3.36,1.37,3.87.43-2.34.11-3.26-1.37-3.87ZM135.65,205.04c-1.49,1.84-.35,3.61-.25,5.35,1.28-1.68.62-3.44.25-5.35ZM122.16,219.09c-1.2.74-1.57,1.65-1.21,2.94.08.28.08.8.56.61.32-.12.76-.47.78-.74.05-.91-.07-1.83-.13-2.81ZM140.59,244.77c1.5-1.71,1.73-2.34,1.2-3.36-.49.52-.98,1.03-1.45,1.56-.65.72-.58,1.2.26,1.79ZM170.07,216.58c-.3-1.51-1.58-1.95-3.11-1.11,1.15,1.36,1.9,1.64,3.11,1.11ZM142.92,241.09c.24,1.55.98,2.64,2.05,3.14.46-.54.54-1.13.11-1.49-.66-.56-1.38-1.06-2.16-1.65ZM118,219.68c1.54.12,3.13-.09,3.17-1.03-1.87-.45-3-.09-3.17,1.03ZM167.81,219.38c.23-1.23-.36-2.24-1.48-2.47.06.57.1,1.14.19,1.7.14.84.41.99,1.29.77ZM135.77,203.88c-1.52-.13-2.95-.83-4.47.15,1.09.16,2.1.28,3.09.45.56.1.97-.04,1.37-.6ZM145.54,222.12c-.4-1.14-1.35-1.58-2.1-2.2,0,0-.31.24-.3.35.09,1.04.26,1.22,1.29,1.51.32.09.64.19,1.11.33ZM139.87,221.52c.04.09.08.19.12.28.67-.12,1.41-.12,1.97-.43.22-.12.04-.96.04-1.66-.83.71-1.48,1.26-2.13,1.81ZM143.08,244.06c.06.92.09,1.73.17,2.54.01.1.3.17.47.26.57-1.66.49-2.07-.64-2.8ZM142.23,244.4c-1.27,1.24-1.18,2.14.2,2.66-.04-.68-.08-1.34-.12-2-.01-.18-.04-.37-.08-.65ZM146.65,206.58c.46-1.97.2-2.51-1.18-2.63.38.84.74,1.65,1.18,2.63ZM120.43,220.66c-.86.65-.98,1.23-.6,2.41,1.1-.56.53-1.5.6-2.41ZM136.48,204.18c-.55,1.1-.09,1.93.11,2.9.73-1.02.23-1.85-.11-2.9ZM119.34,220.29c-1.07-.26-1.48-.11-1.74.6.99.33,1.36.21,1.74-.6ZM170.02,219.56c-.6-.47-1.09-.85-1.61-1.25-.11,1.33.1,1.5,1.61,1.25ZM119.1,221.78c-.5.61-.85,1.05-1.21,1.48.04.06.08.13.12.19.39-.11.91-.11,1.13-.37.18-.21,0-.72-.04-1.31Z" fill="#fff"/>
      <path d="M57.86,173.37c.07-1.64.1-3.11.21-4.58.39-5.2,2.73-9.58,5.65-13.77,2.8-4.02,6.49-6.94,10.62-9.41,1.17-.7,2.33-1.39,3.49-2.09.18-.11.33-.26.5-.39-.03-.08-.05-.17-.08-.25-1.22.04-2.45.05-3.67.14-3.8.28-7.6.61-11.41.89-1.27.09-2.33.51-3.28,1.37-2.34,2.11-4.91,3.87-7.98,4.75-4.19,1.2-8.26.68-12.07-1.32-2.95-1.55-5.76-3.36-8.61-5.1-.92-.56-.9-1.08.03-1.66,2.69-1.68,5.37-3.36,8.11-4.95,2.11-1.23,4.46-1.63,6.89-1.56,1.59.05,3.21.02,4.78.25,3.53.52,6.33,2.44,8.72,4.97,1.1,1.17,2.25,1.61,3.86,1.41,2.62-.33,5.28-.36,7.91-.64,2.15-.23,4.29-.64,6.43-.97.08-.01.15-.09.45-.27-1.16-.38-2.11-.81-3.11-1-4.73-.94-8.93-2.9-12.62-6.04-3.57-3.04-5.68-6.86-6.54-11.42-.23-1.24-.42-2.49-.59-3.74-.18-1.28.14-1.63,1.42-1.49,3.29.35,6.37,1.33,9.23,3.03,2.82,1.67,4.95,4.07,7.13,6.46,1.99,2.18,3.14,4.75,3.75,7.59.31,1.46.5,2.96.7,4.44.08.59.37.83.91.89.87.1,1.76.18,2.62.36.8.16,1.44.61,1.78,1.41.34.81.15,1.46-.63,1.87-.61.32-1.27.55-1.89.84-.56.26-1.13.52-1.65.85-.98.61-1.38,1.52-1.27,2.68.15,1.64.31,3.28.37,4.92.34,8.92-4.04,15.65-12.32,18.89-2.26.89-4.57,1.66-6.85,2.47-.23.08-.49.1-.98.19ZM73.28,153.64c-1.2.93-1.43,1.99-1.27,3.15.28,1.98.61,3.96.94,5.93.07.39.25.77.38,1.15.27-.3.57-.59.79-.92.47-.69,1.02-1.38.82-2.28-.52-2.29-1.08-4.58-1.66-7.03ZM71.53,156.48c-.77.56-1.34,1.6-1.32,2.39.01.57.05,1.14.1,1.71.15,1.7.32,3.41.46,5.11.03.36.16.56.52.44.49-.17,1.39-1.7,1.32-2.24-.17-1.44-.35-2.88-.56-4.31-.15-1.02-.34-2.04-.52-3.1ZM68.34,158.34c-.63.13-1.19.24-1.74.36-1.14.24-2.29.44-3.43.71-1.3.31-2.03,1.43-1.73,2.55,1-.2,2-.54,3.01-.57,2.02-.07,3.11-1.2,3.89-3.05ZM74.15,151.35c-.36.89-.73,1.64-.49,2.51.54,1.98,1.09,3.95,1.65,5.92.04.16.21.28.44.56.3-1.37,1-2.47.57-3.72-.56-1.64-1.19-3.26-1.8-4.89-.04-.11-.18-.19-.37-.38ZM66.91,153.26c1.02-.1,1.96-.23,2.9-.28,2.01-.1,2.75-.66,3.37-2.63-2.88-.64-5.53.56-6.27,2.9ZM62.66,159.02c1.65-.31,3.17-.68,4.72-.88,1.45-.18,2.11-1.08,2.61-2.35-1.31.19-2.55.5-3.8.52-1.87.03-2.82,1.08-3.54,2.7ZM64.89,156.11c.15-.02.28-.03.41-.04,1.27-.19,2.53-.42,3.8-.55,1.29-.14,2.19-.95,2.39-2.32-1.5.18-2.99.31-4.46.57-1.28.22-1.96,1.04-2.15,2.36ZM52.67,142.21c-1.31-1.8-2.58-3.57-3.86-5.32-.65-.89-1.56-.92-2.62-.76.19.23.32.39.45.55,1.32,1.65,2.66,3.29,3.96,4.95.68.87.78.94,2.07.59ZM41.08,137.18c1.15,1.53,2.28,3.02,3.41,4.51.14.18.31.46.47.47.7.03,1.4-.03,2.34-.06-1.6-1.79-3.06-3.42-4.53-5.04-.1-.11-.35-.18-.51-.15-.44.07-.87.2-1.19.28ZM42.07,148.43c.31.06.72.18,1.13.2.25.01.6-.05.74-.22,1.36-1.53,2.54-3.17,3.21-5.21-.73.17-1.42.33-2.11.51-.14.04-.28.17-.36.3-.88,1.46-1.74,2.92-2.63,4.42ZM69.7,159.39c-.28.29-.47.39-.53.55-.16.39-.37.8-.39,1.21-.1,2.19-.15,4.38-.22,6.67.51-.26.93-.4,1.25-.66.26-.22.58-.61.56-.9-.17-2.22-.42-4.44-.66-6.88ZM61.81,130.9c.38,1,1.27,1.51,2.58,1.46,1.38-.05,2.75-.13,4.13-.2.39-.02.78-.03,1.22-.05-.64-1.1-.99-1.45-1.64-1.44-2.09.05-4.17.14-6.3.22ZM68.3,129.19c.04-.08.1-.13.11-.19.06-1.83.14-3.66.17-5.48.02-.96-.67-1.7-1.79-1.98,0,.25.02.48.03.71.05,1.62.14,3.23.15,4.85,0,1,.46,1.66,1.34,2.09ZM49.98,136.64c1.22,1.8,2.41,3.49,3.52,5.23.45.71.93.83,1.68.51-.52-1.14-1.12-2.23-1.52-3.39-.62-1.76-1.98-2.22-3.67-2.36ZM47.52,149.46c1.01.28,1.71.17,2.06-.42.66-1.1,1.32-2.2,1.94-3.32.35-.63.62-1.31.92-1.97-.95-.43-1.37-.28-1.81.46-1.03,1.76-2.08,3.51-3.12,5.24ZM44.5,149.29c1.18.37,1.59.25,2.21-.58.21-.29.44-.57.63-.87.88-1.4,1.74-2.82,2.64-4.26-1.08-.29-1.79-.19-2.01.34-.82,1.98-1.94,3.76-3.46,5.37ZM69.46,123.05c-.09.03-.19.06-.28.09-.04.08-.11.16-.12.24-.11,1.95-.25,3.89-.31,5.84-.02.82.68,1.53,1.57,1.79-.08-2.19-.13-4.37-.26-6.55-.03-.48-.39-.94-.6-1.41ZM60.04,164.51c1.36-.23,2.65-.41,3.92-.69,1.2-.27,1.69-1.29,2.26-2.33-1.36.26-2.58.55-3.82.72-1.63.23-2.06.6-2.36,2.3ZM38.95,147.37c.63.1,1.08.12,1.51.24.55.16.91-.04,1.19-.48.61-.96,1.24-1.91,1.84-2.87.14-.23.22-.5.32-.71-.1-.1-.13-.14-.17-.16-.06-.03-.14-.06-.2-.05-.86.09-1.67.09-2.21,1.06-.57,1.02-1.42,1.89-2.27,2.98ZM57.29,142.45c.11-2.81-1.14-4.4-3.58-4.56.53,1.26,1.06,2.51,1.58,3.76.49,1.16.74,1.27,2,.81ZM68.01,161.91c-1.5,1.01-2.05,4.05-1.28,6.93.92-.39,1.55-.93,1.47-2.07-.11-1.59-.13-3.19-.19-4.85ZM63.88,132.79c.6.89,1.2,1.34,2.16,1.28,1.64-.11,3.28-.13,4.93-.2.18,0,.35-.14.53-.21-.12-.16-.23-.33-.37-.46-.69-.66-1.54-.63-2.41-.59-1.56.08-3.13.12-4.84.18ZM67.74,129.95c.03-.07.05-.15.08-.22-.52-.28-1.03-.8-1.56-.81-2.03-.03-4.07.11-6.13.18.46.73,1,1.22,1.95,1.16,1.71-.11,3.43-.13,5.14-.2.17,0,.34-.07.52-.11ZM71.2,132.57c.12-.01.25-.03.37-.04.05-.21.14-.42.15-.63.1-1.78.2-3.55.28-5.33.04-.93-.49-1.71-1.35-1.98-.03.24-.08.47-.08.7,0,1.71-.03,3.43.06,5.14.04.72.37,1.42.57,2.13ZM49.73,142.15c-.12-.2-.2-.37-.31-.51-1.31-1.6-2.61-3.21-3.94-4.79-.65-.77-.72-.75-1.59-.17,1.42,1.69,2.87,3.35,4.24,5.08.47.59.94.59,1.6.39ZM64.16,170.39c.64-.54,1.49-.9,1.62-1.44.33-1.43.34-2.93.49-4.51-1.99,1.21-2.64,3.03-2.11,5.95ZM65.36,120.57c-.07,1.66-.17,3.31-.22,4.97-.02.88.61,1.64,1.64,2.01-.07-1.96-.12-3.88-.22-5.8-.04-.81-.39-1.09-1.21-1.17ZM65.9,128.2c.04-.08.07-.16.11-.23-.57-.35-1.12-.96-1.71-1-1.59-.11-3.19.02-4.78.07-.13,0-.25.21-.38.32.33.35.65.99.98.99,1.92.03,3.85-.09,5.77-.16ZM76.43,155.91c.88-2.61.49-5.49-.94-6.99-.24.67-.75,1.34-.63,1.87.38,1.68.99,3.3,1.56,5.12ZM73.17,133.9c.17-1.66.27-3.23.52-4.77.19-1.18-.33-1.92-1.21-2.71-.03.79-.06,1.47-.1,2.16-.07,1.3-.16,2.61-.23,3.91-.03.66.29,1.11,1.01,1.41ZM58.06,125.45c.51.52.85,1.16,1.22,1.18,1.52.08,3.05-.03,4.57-.09.1,0,.26-.14.29-.25.03-.1-.05-.31-.13-.34-.7-.31-1.4-.76-2.14-.86-.96-.13-1.95.01-2.92.07-.21.01-.42.13-.88.28ZM38.56,138.34c.79.82,1.68,1.52,2.27,2.41.66,1,1.53,1.3,2.72,1.36-.95-1.5-1.91-2.89-3.24-3.98-.7-.58-1.07-.49-1.75.2ZM72.88,135.31c.04-.13.08-.25.12-.38-.42-.25-.84-.71-1.27-.72-1.74-.03-3.47.07-5.21.13-.4.01-.47.29-.22.5.38.31.84.73,1.27.73,1.77,0,3.54-.16,5.31-.26ZM63.41,119.54c-.01,1.19-.07,2.37-.03,3.56.03.93.45,1.7,1.33,2.26.03-.77.05-1.46.08-2.15.03-.71.07-1.43.1-2.14.05-1.05-.37-1.48-1.48-1.54ZM64.04,164.22c-1.22.22-2.32.39-3.41.62-1.02.22-1.31.86-.89,1.91,1.8-.14,3.53-.38,4.29-2.53ZM74.57,135.55c.17-1.08.23-2.09.51-3.03.39-1.3-.04-2.36-.69-3.43-.04.07-.09.13-.1.19-.25,1.54-.52,3.09-.74,4.64-.1.72.28,1.21,1.03,1.63ZM56.78,143.65c-.58-.08-1.12.08-1.31.45-.7,1.37-1.37,2.75-2.05,4.14,1.79-.15,3.27-2.19,3.36-4.58ZM54.65,143.66c-.94-.15-1.07-.03-1.39.59-.64,1.27-1.33,2.51-2,3.76-.21.38-.43.75-.65,1.13.05.06.09.12.14.17.4-.16,1.01-.19,1.17-.48.95-1.66,1.8-3.38,2.73-5.16ZM40.67,141.87c-.93-.91-1.71-1.75-2.57-2.51-.76-.67-1.06-.6-1.76.24.69.61,1.43,1.18,2.07,1.84.59.6,1.24.68,2.25.44ZM63.1,123.66c-.05-1.36-.07-2.69-.16-4.01-.04-.65-.49-.85-1.09-.76-.61,2.24-.15,4.09,1.25,4.77ZM62.34,124.59c-.95-1.4-2.63-1.73-4.91-.96.4.4.73,1.02,1.1,1.05,1.24.09,2.49-.04,3.81-.09ZM37.05,146.1c.82.71,1.18.67,1.8-.18.32-.44.67-.86,1-1.3.31-.4.61-.81.91-1.22-.05-.08-.11-.16-.16-.25-.61.25-1.35.36-1.81.78-.68.61-1.16,1.43-1.73,2.17ZM74.31,148.44c-1.64-.62-3.36-.04-3.91,1.28,2.33.49,3.26.19,3.91-1.28ZM74.48,136.61c-1.81-1.54-3.6-.44-5.34-.38,1.64,1.32,3.42.71,5.34.38ZM60.77,122.78c-.71-1.22-1.61-1.61-2.91-1.28-.28.07-.8.06-.63.55.11.32.46.78.72.8.91.07,1.83-.03,2.81-.06ZM34.65,140.57c1.67,1.54,2.3,1.78,3.33,1.28-.51-.5-1.01-1-1.53-1.49-.71-.67-1.19-.61-1.8.21ZM62.1,170.74c1.52-.27,1.99-1.53,1.19-3.08-1.39,1.12-1.69,1.86-1.19,3.08ZM38.26,142.99c-1.56.2-2.66.91-3.19,1.97.53.47,1.11.57,1.49.15.58-.65,1.09-1.35,1.7-2.12ZM60.28,118.6c-.15,1.54.01,3.13.95,3.2.5-1.86.16-2.99-.95-3.2ZM59.35,168.41c1.22.26,2.25-.31,2.51-1.42-.57.05-1.14.07-1.7.15-.84.12-1,.39-.8,1.27ZM75.63,136.76c.16-1.52.9-2.93-.04-4.47-.18,1.08-.33,2.09-.53,3.08-.11.56.01.97.57,1.39ZM57.16,146.08c1.15-.38,1.61-1.32,2.25-2.05,0,0-.23-.31-.35-.3-1.04.06-1.23.23-1.54,1.25-.1.32-.2.63-.36,1.1ZM57.9,140.42c-.09.04-.19.07-.28.11.11.67.08,1.41.38,1.98.12.22.96.06,1.66.08-.68-.85-1.22-1.51-1.76-2.17ZM35.29,143.08c-.92.03-1.73.05-2.54.11-.1,0-.18.29-.27.46,1.65.61,2.06.54,2.81-.57ZM34.98,142.23c-1.21-1.3-2.11-1.24-2.66.14.69-.02,1.35-.05,2.01-.07.18,0,.37-.04.65-.06ZM72.67,147.57c1.96.51,2.5.26,2.66-1.11-.85.35-1.67.7-2.66,1.11ZM59.24,121.01c-.63-.88-1.2-1.01-2.39-.65.53,1.12,1.49.57,2.39.65ZM75.32,137.46c-1.08-.57-1.92-.13-2.9.04,1,.76,1.85.28,2.9-.04ZM59.64,119.92c.28-1.07.15-1.48-.56-1.75-.35.98-.24,1.35.56,1.75ZM59.13,170.61c.48-.59.87-1.07,1.29-1.58-1.33-.14-1.5.07-1.29,1.58ZM58.15,119.65c-.6-.51-1.03-.88-1.45-1.25-.07.04-.13.08-.2.12.1.39.09.91.34,1.14.2.18.72.01,1.31,0Z" fill="#fff"/>
      <g>
        <g>
          <rect x="253.98" y="126.13" width="8.03" height="8.03" transform="translate(532.45 39.74) rotate(135)" fill="#fff"/>
          <rect x="253.98" y="149.21" width="8.03" height="8.03" transform="translate(548.77 79.14) rotate(135)" fill="#fff"/>
        </g>
        <g>
          <rect x="18.44" y="126.13" width="8.03" height="8.03" transform="translate(98.6 22.24) rotate(45)" fill="#fff"/>
          <rect x="18.44" y="149.21" width="8.03" height="8.03" transform="translate(114.92 29) rotate(45)" fill="#fff"/>
        </g>
      </g>
      <g>
        <path d="M116.38,157.76c-5.75-4.2-11.47-8-16.74-12.34-6.38-5.25-8.03-12.15-5.07-20.12,6.15-16.54,17.82-27.18,34.96-31.45,7.86-1.95,15.47-.19,22.65,3.23,8.52,4.06,15.42,9.93,19.26,18.81,4.45,10.28,1.71,19.91-7.37,26.41-.17.12-.4.18-.67.29.38-2.85.86-5.59,1.1-8.35.65-7.49-.56-14.51-5.75-20.34-3.37-3.78-7.71-5.87-12.64-6.81-7.59-1.45-14.82-.39-21.52,3.44-6.09,3.48-9.32,9-10.63,15.78-1.3,6.75-.46,13.45.52,20.13.54,3.67,1.22,7.31,1.9,11.31Z" fill="#fff"/>
        <path d="M165.04,98.63c2.06,1.42,4.19,2.75,6.16,4.27,7.66,5.92,13.04,13.53,16.18,22.65,2.1,6.12.65,11.65-3.46,16.57-3.94,4.71-9.16,7.85-13.89,11.6-5.05,4.01-10.24,7.89-15.02,12.2-5.98,5.4-10.65,11.81-13.16,19.62-.07.21-.26.37-.44.63-3.37-9.94-10.04-17.21-18.08-23.45-.55-.42-1.09-1.12-1.22-1.77-1.36-6.76-2.63-13.54-3.91-20.32-.08-.43-.01-.9-.01-1.43,2.02,1.8,3.84,3.67,5.9,5.22,5.26,3.96,11.28,6.09,17.77,6.9,6.65.83,13.25.82,19.57-1.77,9.59-3.92,15.09-11.18,16.56-21.34,1.44-9.91-1.51-18.5-8.64-25.57-1.38-1.37-3.02-2.48-4.53-3.71.07-.1.14-.21.2-.31Z" fill="#fff"/>
        <path d="M133.63,120.6c-3.68.37-6.86,6.46-3.76,11.05,2.33,3.45,5.95,4.94,9.84,5.65,8.32,1.52,14.81-1.73,18.81-9.24.24-.45.49-.9.84-1.56.18.48.4.8.42,1.14.3,5.43.13,10.8-1.68,16.02-.37,1.08-.94,1.78-2.08,2.04-9.33,2.15-18.27,1-26.62-3.58-6.89-3.77-10.32-11.42-8.76-18.71,1.02-4.76,4.22-7.85,8.44-9.78,6.27-2.87,12.85-3.05,19.39-1.07,1.85.56,3.7,1.8,5.07,3.19,2.97,3.01,3.13,7.18.8,10.7-3.15,4.76-11.08,7.43-16.45,5.53-4.08-1.45-6.46-5.48-5.33-9.11.24-.76.68-1.45,1.08-2.27Z" fill="#fff"/>
        <path d="M189.87,143.34c-.04,22.08-17.88,44.44-43.63,47.12,1.47-5.76,4.02-10.94,7.48-15.68,4.6-6.31,10.81-10.84,16.99-15.42,4.9-3.63,9.83-7.22,14.6-11.01,1.69-1.34,2.95-3.21,4.57-5.02Z" fill="#fff"/>
        <path d="M91.81,144.63c1.15,1.34,1.94,2.31,2.78,3.24,4.01,4.4,9.23,7.18,14.09,10.44,6.38,4.28,12.75,8.56,17.96,14.29,4.7,5.16,8.4,10.92,10.43,18.02-10.84-.88-20.23-4.77-28.25-11.77-10.2-8.9-15.82-20.18-17.01-34.22Z" fill="#fff"/>
      </g>
      <g>
        <g>
          <path d="M205.65,86.71c-1.04.56-2.1.61-3.24.43-.45-.07-1.07.11-1.41.4-1.37,1.2-2.61,2.53-3.99,3.74-2.27,1.98-4.93,3.34-7.78,4.23-3.91,1.21-7.83.88-11.69-.32-.43-.13-.84-.36-1.26-.54.02-.07.04-.15.05-.23.28,0,.57-.04.84.01,3.78.64,7.1-.57,9.94-2.9,3.32-2.73,5.7-6.23,7.23-10.27.52-1.39.53-1.44,1.94-.94.35.12.69.29.99.5.98.67,1.11,1.36.58,2.42-1.55,3.06-3.65,5.68-6.33,7.83-.21.17-.48.4-.63.63-.07.11-.07.15.02.27.22.25.48.01.69-.14.23-.16.44-.34.65-.52.53-.46,1.03-.94,1.52-1.44.61-.61,1.24-1.23,1.8-1.89,1.31-1.55,2.38-3.29,3.22-5.14.3-.66,1.14-2.04,1.03-2.77-.07-.55-.7-.85-1.13-1.08-.2-.1-2.76-1.13-2.77-1.12.23-.52.42-1.05.7-1.55.25-.47.56-.93.88-1.36,1.13-1.54,2.65-2.28,4.55-2.21.51.02,1.02.16,1.52.1.57-.06,1.13-.28,1.69-.43-.02-.18-.04-.35-.06-.52-.13.05-.25.12-.39.13-.11.01-.21.02-.31.02l.26-1.81s.03,0,.04,0c.41-.03.96-.31,1.17-.65.45-.74.85-1.55,1.03-2.39.6-2.76,3.6-4.57,6.29-3.76,1.19.36,2.09,1.22,2.87,2.16.27.32.53.87.87,1.12.37.27,1.03.13,1.43-.02.1-.04.21-.08.33-.09.11-.01.23.02.29.11.11.16,0,.37-.12.53-.49.69-1.02,1.28-1.56,1.92-.56.66-1.1,1.34-1.71,1.96-.59.58-.89,1.51-1.25,2.25-.19.4-.4.81-.75,1.07-.26.18-.54.14-.79.26-.23.1-.36.25-.52.48-.51.68-1.09.74-1.78.47-.41-.16-.78-.4-1.18-.58-.63-.28-1.22-.22-1.6.41-.91,1.51-1.5,3.1-1.08,4.91.22.92.43,1.85.63,2.77.34,1.64-.22,2.71-1.71,3.5Z" fill="#fff"/>
          <g>
            <path d="M183.76,75.21c.37-.75.67-1.48,1.09-2.14,1.35-2.12,3.61-1.44,4.58.34,1.04,1.91.56,3.79-1.25,5.17-1.6,1.22-3.5,1.57-5.41,1.92-.2.04-.48.26-.52.44-.34,1.5-.64,3-.95,4.51-.01.07.01.14.02.2.9-.44,1.75-1.04,2.69-1.28,1.21-.31,2.51-.52,3.75-.43,2.48.17,4.33-.69,5.46-2.87.81-1.56,1.46-3.2,2.17-4.81.07-.15.05-.34.08-.57-.7-.04-1.38-.07-2.25-.12,1.23-.88,1.99-1.91,2.48-3.14.63-1.58.79-3.25.73-4.92-.1-2.62-.85-5.12-1.72-7.58-.03-.07-.14-.12-.2-.17-.45.84-.84,1.69-1.34,2.46-.34.52-.81.99-1.3,1.38-1.44,1.14-2.8,2.35-3.76,4.26-.16-.93-.3-1.67-.43-2.42-4.73,1.83-6.7,6.15-3.91,9.78Z" fill="#fff"/>
            <path d="M183.83,79.85c-.88.15-1.23.19-1.32-.13.29-.09,1.81-1.76,2.96-3.8-.06-.1-.09-.17-.14-.22-.76-.84-.74-1.55.08-2.47.68-.76,1.94-.99,2.64-.48,1.31.94,1.63,3.25.64,4.55-1.22,1.61-2.97,2.23-4.86,2.56Z" fill="#fff"/>
          </g>
          <path d="M183.21,83.9c1.73-1.12,5.85,2.28,5.85,2.28-3.06,4.85-11.96,7-12.23,7.21s2-1.66,3.93-6.29c0,0,1.61-2.05,2.71-2.54" fill="#fff"/>
          <path d="M194.53,80.81c.67-1.71,1-1.85,1-1.85l3.09,2.01c.14.09.21.27.15.43-.3.82-1.25,3.28-2.48,4.53-1.49,1.51-3.75,1.77-3.75,1.77" fill="#fff"/>
          <path d="M205.35,71.98c-.64-.52-.7-1.14-.41-1.81-.33-.23-.67-.42-.96-.67-.31-.27-.29-1.01.02-1.27.07-.06.18-.08.32-.05-.02.04-.04.09-.07.13-.25.31-.31.63-.1.92.18.27.46.43.8.38,1.19-.17,1.94-1.43,1.26-2.57-.35-.58-.89-.92-1.48-1.29.01.36.22.69-.05,1.06-.19-.84-.69-1.39-1.41-1.73-.81-.38-1.67-.6-2.58-.63-.07,0-.13-.03-.19-.04v.13c.05.04.1.08.15.11,1.1.65,1.46,1.63,1.35,2.86-.08.9-.15,1.82.09,2.71.26.95.92,1.48,1.83,1.71.84.21.95.19,1.44.04Z" fill="#fff"/>
        </g>
        <path d="M195.93,77.89l4.28,2.79s1.22-.88.95-1.74.07-1.03-1.19-1.71-.7.68-1.23.49" fill="#fff"/>
        <path d="M199.61,81.18c.08-.46-.25-1.05-.73-1.36s-.08-.96-.08-.96c0,0,.82-.16,1.21,0s1.2.66,1.27.97.91,1.57.5,1.66" fill="#fff"/>
      </g>
      <g>
        <g>
          <path d="M212.59,186.66c-1.12-.4-2.16-.29-3.27.06-.43.13-1.07.05-1.46-.19-1.53-.98-2.96-2.12-4.5-3.1-2.54-1.62-5.37-2.57-8.33-3.03-4.05-.61-7.87.3-11.51,2.06-.41.2-.78.48-1.16.72.03.07.06.15.09.22.28-.04.57-.05.83-.14,3.64-1.2,7.11-.49,10.26,1.39,3.69,2.2,6.57,5.31,8.68,9.08.72,1.3.74,1.35,2.06.64.32-.17.64-.39.91-.64.87-.81.9-1.51.21-2.47-1.99-2.79-4.45-5.07-7.43-6.8-.23-.14-.54-.33-.71-.53-.08-.1-.1-.14-.02-.27.18-.28.47-.08.7.03.25.12.48.27.72.42.59.37,1.16.78,1.72,1.19.7.51,1.41,1.03,2.06,1.6,1.53,1.34,2.84,2.9,3.95,4.6.4.61,1.43,1.84,1.44,2.59,0,.56-.57.95-.96,1.23-.18.13-2.56,1.53-2.58,1.52.3.48.58.98.92,1.43.32.43.69.84,1.07,1.22,1.35,1.35,2.96,1.86,4.83,1.51.5-.09.99-.31,1.49-.33.57-.02,1.16.11,1.74.17,0,.18,0,.35.02.52-.13-.03-.27-.08-.4-.07-.11,0-.21.02-.31.03l.53,1.75s.03,0,.04,0c.41-.03,1,.16,1.25.47.56.66,1.07,1.41,1.38,2.21,1,2.64,4.24,3.98,6.78,2.78,1.12-.53,1.88-1.51,2.51-2.56.22-.36.39-.94.7-1.24.33-.32,1-.28,1.42-.2.11.02.22.05.34.04.11,0,.22-.06.27-.16.09-.17-.06-.36-.19-.5-.59-.61-1.2-1.11-1.83-1.67-.65-.57-1.29-1.16-1.99-1.68-.67-.48-1.1-1.36-1.57-2.04-.25-.36-.52-.74-.9-.95-.29-.14-.55-.06-.82-.14-.24-.07-.39-.2-.58-.4-.61-.6-1.19-.57-1.83-.2-.38.22-.71.51-1.09.75-.58.37-1.17.39-1.64-.17-1.13-1.35-1.95-2.84-1.8-4.7.08-.95.15-1.89.21-2.83.09-1.67-.62-2.65-2.21-3.21Z" fill="#fff"/>
          <g>
            <path d="M192.65,201.29c.48.68.88,1.36,1.39,1.95,1.65,1.89,3.79.89,4.48-1.02.74-2.04,0-3.83-2.01-4.93-1.76-.96-3.69-1.03-5.63-1.09-.2,0-.51-.18-.58-.35-.56-1.43-1.08-2.88-1.61-4.32-.02-.07-.01-.14-.01-.2.95.3,1.88.77,2.85.87,1.24.13,2.56.14,3.77-.13,2.42-.54,4.38.04,5.83,2.03,1.03,1.42,1.92,2.95,2.86,4.43.09.14.1.33.16.56-.69.14-1.36.28-2.21.46,1.34.69,2.25,1.59,2.92,2.74.86,1.47,1.27,3.1,1.46,4.75.29,2.61-.08,5.19-.57,7.75-.01.08-.12.14-.17.2-.57-.77-1.08-1.55-1.7-2.23-.42-.46-.95-.86-1.49-1.17-1.6-.91-3.12-1.9-4.35-3.66-.02.94-.04,1.7-.06,2.45-4.95-1.11-7.54-5.09-5.32-9.09Z" fill="#fff"/>
            <path d="M192.02,196.69c-.89-.02-1.25,0-1.29.33.3.04,2.05,1.47,3.49,3.32-.05.11-.07.18-.11.24-.63.95-.5,1.64.45,2.43.79.65,2.06.69,2.68.08,1.16-1.13,1.13-3.46-.04-4.6-1.45-1.41-3.27-1.77-5.19-1.8Z" fill="#fff"/>
          </g>
          <path d="M190.82,192.78c1.88.85,5.45-3.13,5.45-3.13-3.75-4.34-12.87-5.14-13.17-5.31s2.23,1.35,4.82,5.63c0,0,1.9,1.79,3.06,2.11" fill="#fff"/>
          <path d="M202.46,194.15c.92,1.6,1.26,1.69,1.26,1.69l2.76-2.45c.13-.11.16-.3.08-.45-.41-.77-1.73-3.06-3.13-4.11-1.7-1.27-3.97-1.19-3.97-1.19" fill="#fff"/>
          <path d="M214.48,201.27c-.55.61-.52,1.23-.14,1.85-.3.27-.6.51-.85.8-.27.31-.13,1.04.21,1.26.08.05.19.05.32,0-.03-.04-.06-.08-.09-.12-.29-.27-.4-.57-.24-.9.14-.29.39-.49.74-.5,1.21,0,2.13,1.12,1.63,2.35-.26.62-.75,1.04-1.27,1.49-.04-.36.11-.72-.21-1.04-.07.86-.48,1.48-1.14,1.92-.75.49-1.57.84-2.45,1-.06.01-.12.05-.19.07l-.02-.12s.08-.09.13-.13c.99-.8,1.2-1.83.91-3.03-.21-.88-.42-1.77-.31-2.7.11-.98.68-1.6,1.55-1.96.8-.33.92-.33,1.42-.25Z" fill="#fff"/>
        </g>
        <path d="M204.29,196.83l3.82-3.4s1.34.69,1.2,1.58c-.14.89.23,1.01-.92,1.87s-.79-.57-1.29-.3" fill="#fff"/>
        <path d="M207.44,193.03c.15.44-.09,1.08-.52,1.46-.42.38.06.96.06.96,0,0,.83.03,1.19-.19s1.09-.83,1.11-1.14.66-1.68.25-1.72" fill="#fff"/>
      </g>
      <g>
        <g>
          <path d="M75.28,197.11c1.07-.51,2.12-.51,3.26-.28.44.09,1.07-.05,1.43-.33,1.42-1.13,2.73-2.41,4.16-3.54,2.36-1.87,5.08-3.11,7.98-3.86,3.96-1.02,7.86-.51,11.66.88.43.15.83.4,1.23.59-.02.07-.04.15-.07.22-.28-.02-.57,0-.84-.05-3.75-.82-7.12.24-10.07,2.43-3.45,2.57-5.99,5.95-7.71,9.92-.59,1.36-.6,1.42-1.98.85-.34-.14-.67-.32-.97-.55-.95-.72-1.05-1.41-.46-2.44,1.7-2.98,3.91-5.5,6.7-7.52.22-.16.5-.38.65-.6.07-.11.08-.15-.01-.27-.21-.26-.48-.03-.69.1-.23.15-.45.32-.67.49-.55.43-1.07.89-1.59,1.36-.64.58-1.3,1.17-1.89,1.8-1.38,1.49-2.53,3.17-3.46,4.98-.33.65-1.24,1.98-1.16,2.72.05.55.66.88,1.08,1.13.19.11,2.7,1.26,2.72,1.25-.25.51-.47,1.03-.77,1.52-.28.46-.6.91-.94,1.32-1.2,1.48-2.75,2.15-4.65,1.99-.51-.04-1.01-.21-1.51-.18-.57.04-1.14.22-1.71.35.01.18.03.35.03.52.13-.04.26-.11.39-.12.11,0,.21,0,.31,0l-.35,1.79s-.03,0-.04,0c-.42.01-.98.26-1.2.6-.48.72-.92,1.51-1.14,2.33-.73,2.73-3.82,4.4-6.46,3.45-1.17-.42-2.03-1.31-2.76-2.3-.26-.34-.48-.9-.82-1.16-.36-.29-1.02-.18-1.43-.05-.11.03-.21.07-.33.08-.11,0-.23-.03-.29-.13-.1-.16.02-.37.14-.52.52-.66,1.08-1.23,1.65-1.84.59-.64,1.16-1.29,1.81-1.87.62-.55.96-1.46,1.35-2.19.21-.39.44-.79.8-1.03.27-.17.54-.11.8-.22.24-.09.37-.24.54-.45.55-.66,1.12-.69,1.8-.39.4.18.76.43,1.16.63.62.31,1.2.27,1.61-.33.99-1.46,1.65-3.03,1.31-4.85-.17-.93-.34-1.87-.49-2.8-.26-1.65.35-2.7,1.88-3.42Z" fill="#fff"/>
          <g>
            <path d="M96.61,209.63c-.41.73-.74,1.45-1.19,2.08-1.45,2.05-3.68,1.27-4.56-.56-.95-1.96-.38-3.81,1.5-5.1,1.66-1.14,3.57-1.4,5.49-1.66.2-.03.49-.23.54-.41.41-1.48.78-2.97,1.16-4.46.02-.07,0-.14,0-.2-.92.4-1.8.96-2.75,1.16-1.22.25-2.53.4-3.76.26-2.47-.29-4.35.48-5.59,2.61-.88,1.52-1.61,3.13-2.39,4.7-.07.15-.06.33-.11.57.7.07,1.38.14,2.24.23-1.27.82-2.08,1.81-2.63,3.02-.71,1.55-.95,3.21-.96,4.88-.03,2.62.61,5.16,1.36,7.66.02.07.13.12.19.18.49-.82.92-1.65,1.46-2.39.37-.5.85-.95,1.36-1.32,1.5-1.07,2.91-2.21,3.96-4.08.12.94.22,1.68.31,2.43,4.81-1.61,6.98-5.83,4.37-9.58Z" fill="#fff"/>
            <path d="M96.76,204.99c.89-.11,1.24-.13,1.31.19-.3.07-1.89,1.67-3.14,3.66.06.1.08.18.13.23.72.88.67,1.58-.2,2.47-.71.73-1.98.9-2.66.36-1.26-1-1.47-3.33-.43-4.58,1.3-1.55,3.07-2.09,4.98-2.32Z" fill="#fff"/>
          </g>
          <path d="M97.57,200.98c-1.78,1.04-5.74-2.56-5.74-2.56,3.29-4.69,12.28-6.42,12.56-6.63s-2.08,1.57-4.22,6.09c0,0-1.7,1.97-2.83,2.41" fill="#fff"/>
          <path d="M86.12,203.53c-.75,1.68-1.09,1.81-1.09,1.81l-3-2.15c-.14-.1-.19-.28-.13-.44.33-.8,1.41-3.22,2.7-4.41,1.56-1.44,3.82-1.59,3.82-1.59" fill="#fff"/>
          <path d="M74.89,211.83c.61.55.65,1.17.33,1.83.32.24.65.45.93.71.3.28.24,1.02-.08,1.27-.07.06-.19.07-.32.04.03-.04.05-.09.08-.12.26-.3.34-.61.15-.92-.17-.28-.44-.45-.78-.42-1.2.12-2.01,1.34-1.38,2.5.32.59.85.96,1.42,1.35,0-.36-.18-.7.1-1.05.15.85.63,1.43,1.33,1.79.79.42,1.64.67,2.54.75.06,0,.13.03.19.05v-.13s-.09-.08-.14-.12c-1.07-.7-1.38-1.7-1.21-2.92.12-.9.24-1.81.04-2.72-.21-.96-.84-1.52-1.75-1.79-.83-.25-.94-.23-1.44-.1Z" fill="#fff"/>
        </g>
        <path d="M84.58,206.38l-4.15-2.99s-1.26.82-1.03,1.69-.12,1.03,1.11,1.77c1.23.74.73-.65,1.25-.43" fill="#fff"/>
        <path d="M81.06,202.92c-.1.45.2,1.06.66,1.4s.04.96.04.96c0,0-.82.12-1.2-.06s-1.17-.72-1.22-1.03-.83-1.61-.42-1.68" fill="#fff"/>
      </g>
      <g>
        <g>
          <path d="M67.2,93.49c1.07.5,2.13.49,3.26.25.44-.09,1.07.05,1.43.32,1.43,1.12,2.75,2.39,4.19,3.51,2.38,1.85,5.1,3.07,8.01,3.8,3.97.99,7.86.44,11.65-.97.43-.16.82-.4,1.23-.6-.02-.07-.05-.15-.07-.22-.28.02-.57,0-.84.06-3.74.85-7.12-.18-10.08-2.35-3.47-2.54-6.04-5.91-7.79-9.86-.6-1.36-.61-1.41-1.99-.84-.34.14-.67.33-.96.56-.95.72-1.04,1.42-.44,2.44,1.72,2.97,3.96,5.47,6.76,7.47.22.16.5.38.66.6.07.11.08.15,0,.27-.21.27-.48.04-.69-.1-.23-.15-.46-.31-.68-.48-.55-.43-1.08-.88-1.6-1.35-.65-.58-1.31-1.16-1.9-1.79-1.39-1.48-2.56-3.15-3.5-4.95-.34-.65-1.25-1.97-1.19-2.71.04-.55.65-.89,1.07-1.14.19-.11,2.69-1.28,2.71-1.27-.26-.51-.48-1.03-.78-1.51-.28-.46-.61-.9-.95-1.31-1.21-1.47-2.77-2.13-4.67-1.95-.51.04-1.01.22-1.51.19-.57-.03-1.14-.22-1.72-.34,0-.18.02-.35.03-.52.13.04.26.11.39.11.11,0,.21,0,.31,0l-.36-1.79s-.03,0-.04,0c-.42,0-.98-.25-1.2-.59-.49-.71-.94-1.5-1.16-2.33-.75-2.72-3.85-4.37-6.49-3.4-1.17.43-2.02,1.33-2.74,2.32-.25.34-.48.9-.81,1.17-.36.29-1.02.18-1.43.06-.11-.03-.21-.07-.33-.07-.11,0-.23.04-.29.13-.1.16.03.37.15.52.53.66,1.09,1.22,1.67,1.83.59.63,1.17,1.28,1.82,1.86.62.54.97,1.45,1.37,2.18.22.39.44.79.81,1.03.27.17.54.11.8.22.24.09.37.23.54.45.55.66,1.13.68,1.81.38.4-.18.76-.44,1.15-.64.61-.32,1.2-.28,1.62.32,1,1.45,1.67,3.01,1.35,4.84-.16.93-.33,1.87-.47,2.8-.25,1.65.37,2.7,1.9,3.4Z" fill="#fff"/>
          <g>
            <path d="M88.43,80.81c-.42-.72-.75-1.44-1.2-2.07-1.47-2.04-3.69-1.24-4.56.6-.93,1.96-.35,3.82,1.54,5.09,1.67,1.13,3.58,1.38,5.51,1.62.2.03.49.23.55.41.43,1.48.81,2.96,1.2,4.45.02.07,0,.14,0,.2-.92-.39-1.8-.94-2.76-1.13-1.23-.24-2.53-.38-3.76-.23-2.46.31-4.36-.45-5.61-2.56-.89-1.51-1.63-3.11-2.43-4.68-.07-.15-.07-.33-.11-.57.7-.08,1.38-.15,2.24-.25-1.27-.81-2.09-1.79-2.65-3-.72-1.55-.97-3.2-1-4.87-.05-2.62.57-5.16,1.3-7.67.02-.08.13-.13.19-.18.5.82.93,1.64,1.48,2.38.37.5.86.95,1.37,1.31,1.5,1.06,2.92,2.19,3.99,4.05.11-.94.2-1.69.29-2.44,4.83,1.57,7.03,5.77,4.45,9.55Z" fill="#fff"/>
            <path d="M88.62,85.44c.89.1,1.24.12,1.31-.2-.3-.07-1.9-1.66-3.16-3.63.06-.1.08-.18.13-.23.71-.88.65-1.59-.22-2.47-.72-.72-1.99-.88-2.66-.33-1.26,1.01-1.45,3.34-.39,4.58,1.31,1.54,3.09,2.07,4.99,2.28Z" fill="#fff"/>
          </g>
          <path d="M89.45,89.45c-1.79-1.03-5.72,2.6-5.72,2.6,3.32,4.67,12.33,6.33,12.61,6.53s-2.09-1.55-4.27-6.06c0,0-1.72-1.96-2.85-2.38" fill="#fff"/>
          <path d="M77.99,86.98c-.77-1.68-1.1-1.8-1.1-1.8l-2.98,2.18c-.14.1-.19.28-.12.44.34.8,1.43,3.21,2.73,4.38,1.57,1.43,3.84,1.56,3.84,1.56" fill="#fff"/>
          <path d="M66.69,78.77c.61-.56.64-1.18.31-1.83.32-.25.65-.46.92-.72.3-.28.23-1.02-.09-1.27-.07-.06-.19-.07-.32-.04.03.04.05.09.08.12.27.3.34.61.15.92-.17.28-.44.46-.78.43-1.2-.11-2.02-1.32-1.4-2.49.32-.6.84-.97,1.41-1.37,0,.36-.18.71.11,1.05.15-.85.62-1.43,1.31-1.8.79-.42,1.64-.69,2.54-.77.06,0,.13-.03.19-.05v.13s-.09.08-.14.12c-1.07.71-1.36,1.71-1.19,2.93.13.9.25,1.8.06,2.71-.2.96-.83,1.53-1.73,1.81-.83.26-.94.24-1.44.12Z" fill="#fff"/>
        </g>
        <path d="M76.42,84.15l-4.12,3.03s-1.27-.81-1.05-1.69-.13-1.02,1.09-1.77.74.64,1.25.42" fill="#fff"/>
        <path d="M72.93,87.64c-.11-.45.19-1.07.65-1.4s.03-.96.03-.96c0,0-.82-.11-1.2.07s-1.16.73-1.21,1.04-.82,1.61-.41,1.69" fill="#fff"/>
      </g>
    </g>
  </g>
</svg>